<?xml version="1.0" encoding="utf-8"?>
<!-- Generator: Adobe Illustrator 17.0.1, SVG Export Plug-In . SVG Version: 6.00 Build 0)  -->
<!DOCTYPE svg PUBLIC "-//W3C//DTD SVG 1.1//EN" "http://www.w3.org/Graphics/SVG/1.1/DTD/svg11.dtd">
<svg version="1.1" id="Слой_1" xmlns="http://www.w3.org/2000/svg" xmlns:xlink="http://www.w3.org/1999/xlink" x="0px" y="0px"
	 width="60px" height="30px" viewBox="0 0 60 30" enable-background="new 0 0 60 30" xml:space="preserve">
<path fill="#FFFFFF" d="M15.287,20.421l-3.503-0.013c-3.031-0.012-5.512-2.489-5.523-5.523c-0.008-1.458,0.556-2.823,1.582-3.85
	c1.026-1.026,2.391-1.59,3.85-1.586l12.888,0.053c2.671,0.009,7.152,0.575,7.166,4.236c0.007,1.681,1.374,3.041,3.056,3.034
	c1.681-0.006,3.04-1.374,3.033-3.055C37.811,7.491,32.619,3.445,24.604,3.414L11.716,3.362c-3.094-0.011-5.999,1.185-8.18,3.367
	c-2.182,2.182-3.375,5.084-3.365,8.178c0.015,3.182,1.318,6.072,3.417,8.171c2.099,2.099,4.991,3.405,8.173,3.42l3.505,0.01
	c1.681,0.007,3.047-1.35,3.053-3.031C18.327,21.794,16.968,20.427,15.287,20.421L15.287,20.421z M59.828,15.092
	C59.803,8.405,55.291,3.533,49.101,3.508l-4.365-0.015c-1.681-0.007-3.049,1.348-3.053,3.031c-0.007,1.681,1.351,3.047,3.032,3.054
	l4.363,0.017c3.21,0.012,4.654,2.783,4.664,5.521c0.006,1.461-0.556,2.828-1.582,3.854c-1.026,1.026-2.394,1.588-3.854,1.582
	l-13.748-0.055c-6.288-0.026-6.299-2.975-6.303-4.234c-0.007-1.681-1.376-3.038-3.055-3.035c-1.681,0.007-3.041,1.374-3.034,3.056
	c0.013,2.887,0.954,5.254,2.686,6.986c2.124,2.124,5.434,3.297,9.683,3.314l13.751,0.055c3.094,0.011,5.998-1.185,8.179-3.366
	C58.645,21.092,59.841,18.188,59.828,15.092L59.828,15.092z M59.828,15.092"/>
</svg>
