<?xml version="1.0" encoding="utf-8"?>
<!-- Generator: Adobe Illustrator 17.0.1, SVG Export Plug-In . SVG Version: 6.00 Build 0)  -->
<!DOCTYPE svg PUBLIC "-//W3C//DTD SVG 1.1//EN" "http://www.w3.org/Graphics/SVG/1.1/DTD/svg11.dtd">
<svg version="1.1" xmlns="http://www.w3.org/2000/svg" xmlns:xlink="http://www.w3.org/1999/xlink" x="0px" y="0px"
	 width="303.746px" height="250.181px" viewBox="0 0 303.746 250.181" enable-background="new 0 0 303.746 250.181"
	 xml:space="preserve">
<g id="Background" display="none">
	<radialGradient id="SVGID_1_" cx="-35.665" cy="334.7681" r="527.008" gradientUnits="userSpaceOnUse">
		<stop  offset="0" style="stop-color:#FFFFFF"/>
		<stop  offset="0.4316" style="stop-color:#FCFCFC"/>
		<stop  offset="0.7645" style="stop-color:#F2F3F3"/>
		<stop  offset="1" style="stop-color:#E6E7E8"/>
	</radialGradient>
	<rect x="-435.665" y="-65.232" display="inline" fill="url(#SVGID_1_)" width="800" height="800"/>
</g>
<g id="Objects">
	<g>
		<g>
			<g opacity="0.8">
				<path fill="#FFFFFF" d="M202.859,15.032l0.02,0.048l-1.973,2.586l-3.232-0.416l-1.254-3.002l0.036-0.043
					c-1.269,0.085-2.512,0.323-3.716,0.696l0.046,0.031l-0.073,3.255l-2.856,1.565l-2.78-1.695l-0.002-0.051
					c-0.931,0.775-1.783,1.665-2.527,2.656l0.065,0l1.835,2.689l-1.41,2.93l-3.252,0.245l-0.029-0.045
					c-0.322,1.246-0.482,2.502-0.506,3.751l0.047-0.037l3.067,1.092l0.588,3.203l-2.484,2.109l-0.05-0.017
					c0.469,1.169,1.07,2.285,1.8,3.325l0.012-0.06l3.123-0.919l2.356,2.25l-0.762,3.167l-0.059,0.012
					c0.551,0.348,1.13,0.669,1.738,0.952c0.552,0.264,1.111,0.484,1.674,0.684l-0.024-0.059l1.988-2.58l3.225,0.43l1.25,3.008
					l-0.035,0.048c1.262-0.087,2.516-0.317,3.722-0.687l-0.054-0.035l0.086-3.253l2.863-1.556l2.773,1.701l-0.006,0.061
					c0.967-0.8,1.849-1.719,2.611-2.744l-0.06,0.002l-1.848-2.68l1.401-2.945l3.248-0.256l0.035,0.053
					c0.308-1.247,0.472-2.505,0.488-3.754l-0.049,0.035l-3.069-1.081l-0.596-3.197l2.474-2.12l0.047,0.015
					c-0.471-1.167-1.071-2.284-1.809-3.32l-0.011,0.056l-3.116,0.931l-2.371-2.235l0.755-3.168l0.059-0.019
					c-0.543-0.336-1.105-0.643-1.694-0.92C204.018,15.461,203.44,15.228,202.859,15.032z M203.217,33.167
					c-1.459,3.101-5.163,4.425-8.261,2.963c-3.1-1.462-4.428-5.162-2.966-8.26c1.464-3.104,5.162-4.428,8.264-2.967
					C203.354,26.367,204.681,30.066,203.217,33.167z"/>
				<path fill="#FFFFFF" d="M220.001,0l0.019,0.032l-1.052,1.967l-2.236,0.073l-1.178-1.896l0.02-0.033
					c-0.85,0.196-1.666,0.494-2.441,0.878l0.034,0.016l0.308,2.212l-1.766,1.373l-2.067-0.844l-0.008-0.035
					c-0.545,0.628-1.025,1.323-1.422,2.077l0.046-0.006l1.538,1.621l-0.637,2.139l-2.174,0.523l-0.026-0.029
					c-0.081,0.88-0.054,1.747,0.068,2.596l0.026-0.029l2.198,0.403l0.749,2.107l-1.451,1.699l-0.037-0.004
					c0.446,0.74,0.978,1.43,1.584,2.054l0.002-0.042l2.014-0.963l1.843,1.266l-0.168,2.229l-0.039,0.014
					c0.412,0.176,0.839,0.331,1.282,0.455c0.402,0.118,0.807,0.207,1.209,0.28l-0.023-0.038l1.064-1.965l2.231-0.062l1.177,1.902
					l-0.019,0.036c0.847-0.198,1.671-0.491,2.445-0.873l-0.038-0.018l-0.3-2.213l1.771-1.367l2.064,0.849l0.002,0.042
					c0.569-0.648,1.066-1.367,1.47-2.144l-0.04,0.008l-1.546-1.612l0.628-2.149l2.173-0.53l0.029,0.032
					c0.071-0.877,0.045-1.748-0.082-2.597l-0.027,0.029l-2.198-0.396l-0.754-2.103l1.444-1.706l0.032,0.005
					c-0.446-0.738-0.976-1.43-1.59-2.051v0.038l-2.01,0.973l-1.85-1.255l0.165-2.229l0.037-0.019
					c-0.404-0.169-0.82-0.315-1.249-0.437C220.834,0.163,220.416,0.069,220.001,0z M222.229,12.246
					c-0.649,2.261-3.014,3.564-5.273,2.912c-2.26-0.65-3.564-3.012-2.912-5.27c0.651-2.263,3.012-3.566,5.273-2.915
					C221.576,7.624,222.879,9.984,222.229,12.246z"/>
			</g>
			<path opacity="0.8" fill="#FFFFFF" d="M75.609,80.61c3.883,0,7.031-3.425,7.031-7.649s-3.148-7.649-7.031-7.649
				c-0.832,0-1.626,0.166-2.366,0.454c0.118-0.626,0.179-1.273,0.179-1.936c0-5.338-3.978-9.665-8.885-9.665
				c-1.625,0-3.145,0.482-4.455,1.311c-0.045-6.342-6.479-11.272-11.384-11.272c-4.906,0-11.09,4.93-11.136,11.272
				c-1.311-0.829-2.83-1.311-4.454-1.311c-4.908,0-8.887,4.327-8.887,9.665c0,0.663,0.063,1.31,0.18,1.936
				c-0.74-0.288-1.534-0.454-2.365-0.454c-3.884,0-7.032,3.425-7.032,7.649s3.148,7.649,7.032,7.649H75.609z"/>
			<path opacity="0.8" fill-rule="evenodd" clip-rule="evenodd" fill="#FFFFFF" d="M252.55,88.019h45.654
				c3.048,0,5.542,2.494,5.542,5.541v15.783c0,3.045-2.494,5.542-5.542,5.542h-16.557c-2.945,1.1-2.685,6.77-9.438,10.722
				c-6.994,4.089-15.706,2.639-15.706,2.639c1.294-0.094,3.248-0.491,5.199-1.178c8.569-3.02,7.952-11.057-0.251-12.183h-8.902
				c-3.048,0-5.542-2.492-5.542-5.542V93.56C247.008,90.509,249.5,88.019,252.55,88.019z"/>
			<path opacity="0.8" fill-rule="evenodd" clip-rule="evenodd" fill="#FFFFFF" d="M24.609,146.285
				c1.029,1.342,1.645,3.023,1.645,4.831v7.975h-1.645V146.285L24.609,146.285z M24.609,130.365v-10.543
				c1.678-2.431,4.479-4.022,7.653-4.022c5.127,0,9.289,4.163,9.289,9.294c0,5.744-6.987,10.289-11.894,12.166
				c-3.077,1.176-4.515,0.93-4.515,0.93s3.621-0.362,3.712-2.808c0.023-0.616-0.109-1.218-0.32-1.781
				C26.945,132.907,25.586,131.78,24.609,130.365z M13.127,125.733h0.003v0.003c2.601,0,4.958,1.05,6.663,2.754
				c1.709,1.713,2.763,4.067,2.763,6.667l0,0v0.007l0,0l0,0c0,2.605-1.054,4.961-2.763,6.667c-0.492,0.495-1.042,0.934-1.634,1.308
				h0.116c2.574,0,4.872,1.236,6.334,3.145v12.806H0v-7.975c0-4.386,3.589-7.977,7.975-7.977H8.09
				c-0.591-0.374-1.141-0.813-1.634-1.308c-1.709-1.706-2.763-4.062-2.763-6.664l0,0v-0.003v-0.004l0,0
				c0-2.603,1.054-4.958,2.763-6.67c1.705-1.705,4.066-2.754,6.667-2.754v-0.003H13.127L13.127,125.733z M24.609,119.822
				c-1.032,1.497-1.637,3.313-1.637,5.271c0,1.956,0.604,3.768,1.637,5.272V119.822z"/>
			<polyline opacity="0.8" fill="none" stroke="#FFFFFF" stroke-width="2" stroke-miterlimit="10" stroke-dasharray="4,4" points="
				274.335,137.768 274.335,150.768 212.335,150.768 			"/>
			<polyline opacity="0.8" fill="none" stroke="#FFFFFF" stroke-width="2" stroke-miterlimit="10" stroke-dasharray="4,4" points="
				204.335,58.768 204.335,71.768 152.335,71.768 152.335,106.768 			"/>
			<polyline opacity="0.8" fill="none" stroke="#FFFFFF" stroke-width="2" stroke-miterlimit="10" stroke-dasharray="4,4" points="
				49.335,82.768 49.335,158.016 68.727,158.08 			"/>
			<polyline opacity="0.8" fill="none" stroke="#FFFFFF" stroke-width="2" stroke-miterlimit="10" stroke-dasharray="4,4" points="
				11.335,163.768 11.335,192.768 39.335,192.768 39.335,227.768 115.335,227.768 			"/>
			<g display="none">
				<path display="inline" opacity="0.1804" d="M137.463,189.428c0,0-84.196,0-87.824,0c-3.628,0-3.364,3.428-3.364,3.428v53.767
					c0,0-0.263,3.558,3.364,3.558c3.627,0,83.163,0,87.435,0c3.865,0,3.496-3.558,3.496-3.558s0-50.873,0-54.03
					C140.571,189.428,137.463,189.428,137.463,189.428"/>
				<path display="inline" fill="#666666" d="M50.447,243.044v-53.767c0,0-0.26-3.427,3.368-3.427c3.627,0,87.822,0,87.822,0
					s3.109,0,3.109,3.161c0,3.164,0,54.032,0,54.032s0.368,3.559-3.497,3.559c-4.274,0-83.807,0-87.434,0
					C50.188,246.604,50.447,243.044,50.447,243.044z"/>
				<rect x="55.773" y="190.285" display="inline" fill="#FFFFFF" width="80.776" height="51.966"/>
				<path display="inline" fill="#E6E6E6" d="M136.848,189.987v52.563H55.475v-52.563H136.848 M136.253,190.582H56.071v51.372
					h80.181V190.582z"/>
				<path display="inline" fill="#B3B3B3" d="M141.767,221.62c0,0.66-0.533,1.192-1.192,1.192c-0.659,0-1.192-0.533-1.192-1.192
					v-11.128c0-0.659,0.533-1.191,1.192-1.191c0.659,0,1.192,0.532,1.192,1.191V221.62z"/>
				<rect x="67.507" y="204.279" display="inline" fill="#999999" width="24.014" height="2.842"/>
				<rect x="67.507" y="209.332" display="inline" fill="#999999" width="20.147" height="2.844"/>
				<rect x="67.507" y="215.244" display="inline" fill="#999999" width="24.014" height="1.533"/>
				<rect x="67.507" y="217.97" display="inline" fill="#999999" width="20.147" height="1.533"/>
				<circle display="inline" fill="#999999" cx="113.727" cy="217.316" r="15.055"/>
				<rect x="67.507" y="226.149" display="inline" fill="#00C9F0" width="20.351" height="3.439"/>
				<rect x="55.475" y="189.987" display="inline" fill="#00C9F0" width="81.373" height="7.06"/>
				<polygon display="inline" fill="#00C9F0" points="97.854,236.596 95.575,238.876 93.295,236.596 92.854,237.036 95.575,239.758 
					98.295,237.036 				"/>
				<polygon display="inline" opacity="0.23" fill="#FFFFFF" points="55.475,189.987 55.475,214.385 95.399,189.987 				"/>
			</g>
			<g display="none">
				<path display="inline" opacity="0.1804" d="M227.871,178.337l-0.081,0.003h-29.414l-0.085-0.003
					c-0.374,0-1.857,0.129-1.857,2.183c0,2.342,0,53.81,0,56.573c0,2.1,1.371,2.268,1.809,2.268c0.083,0,0.133-0.005,0.133-0.005
					s27.829,0,29.558,0c1.729,0,1.729-2.011,1.729-2.011s0-54.482,0-56.825C229.662,178.465,228.231,178.337,227.871,178.337"/>
				<path display="inline" fill="#666666" d="M202.208,173.233h29.413c0,0,1.874-0.168,1.874,2.18c0,2.344,0,56.824,0,56.824
					s0,2.011-1.729,2.011c-1.73,0-29.558,0-29.558,0s-1.947,0.239-1.947-2.263c0-2.765,0-54.227,0-56.572
					C200.261,173.065,202.208,173.233,202.208,173.233z"/>
				<rect x="202.479" y="177.629" display="inline" fill="#FFFFFF" width="28.752" height="50.435"/>
				<circle display="inline" fill="#4D4D4D" cx="217.035" cy="175.598" r="1.229"/>
				<circle display="inline" fill="#F2F2F2" cx="217.036" cy="175.598" r="0.388"/>
				<circle display="inline" fill="#B3B3B3" cx="217.027" cy="231.027" r="1.95"/>
				<rect x="205.545" y="212.546" display="inline" fill="#999999" width="20.508" height="2.746"/>
				<rect x="205.545" y="217.428" display="inline" fill="#999999" width="17.206" height="2.747"/>
				<circle display="inline" fill="#999999" cx="217.124" cy="197.48" r="11.578"/>
				<rect x="205.369" y="222.841" display="inline" fill="#00C9F0" width="21.846" height="3.11"/>
				<rect x="202.479" y="177.629" display="inline" fill="#00C9F0" width="28.752" height="5.558"/>
				<polyline display="inline" fill="#FFFFFF" points="203.783,179.013 208.344,179.013 208.344,178.563 203.783,178.563 				"/>
				<polyline display="inline" fill="#FFFFFF" points="203.783,181.787 208.344,181.787 208.344,181.336 203.783,181.336 				"/>
				<polyline display="inline" fill="#FFFFFF" points="203.783,180.357 208.344,180.357 208.344,179.906 203.783,179.906 				"/>
				<polygon display="inline" opacity="0.23" fill="#FFFFFF" points="202.479,177.629 231.231,177.629 202.479,207.09 				"/>
			</g>
		</g>
	</g>
	<g display="none">
		<g display="inline">
			<g>
				<linearGradient id="SVGID_2_" gradientUnits="userSpaceOnUse" x1="141.555" y1="223.0647" x2="141.555" y2="200.6474">
					<stop  offset="0" style="stop-color:#EEEFEF"/>
					<stop  offset="0.2525" style="stop-color:#F9FAFA"/>
					<stop  offset="0.3441" style="stop-color:#FFFFFF"/>
					<stop  offset="0.49" style="stop-color:#FBFBFB"/>
					<stop  offset="0.6296" style="stop-color:#F0F0F1"/>
					<stop  offset="0.7258" style="stop-color:#E3E4E5"/>
					<stop  offset="0.7715" style="stop-color:#DEDFE0"/>
					<stop  offset="0.8236" style="stop-color:#D1D2D3"/>
					<stop  offset="0.8788" style="stop-color:#BABBBC"/>
					<stop  offset="0.9361" style="stop-color:#9A9B9D"/>
					<stop  offset="0.9946" style="stop-color:#717275"/>
					<stop  offset="1" style="stop-color:#6D6E71"/>
				</linearGradient>
				<path fill="url(#SVGID_2_)" d="M157.767,205.09v-4.443h-13.005h-6.413h-13.005v4.443c0,6.68-3.706,12.533-9.162,15.615v2.359
					h50.747v-2.359C161.473,217.624,157.767,211.77,157.767,205.09z"/>
				<linearGradient id="SVGID_3_" gradientUnits="userSpaceOnUse" x1="141.555" y1="223.0647" x2="141.555" y2="220.7052">
					<stop  offset="0.0161" style="stop-color:#808082"/>
					<stop  offset="0.4731" style="stop-color:#E3E4E5"/>
					<stop  offset="1" style="stop-color:#B9BBBD"/>
				</linearGradient>
				<path fill="url(#SVGID_3_)" d="M166.684,223.065h-50.258c-0.262,0-0.474-0.212-0.474-0.474v-1.412
					c0-0.262,0.212-0.474,0.474-0.474h50.258c0.262,0,0.474,0.212,0.474,0.474v1.412
					C167.158,222.852,166.946,223.065,166.684,223.065z"/>
			</g>
			
				<linearGradient id="SVGID_4_" gradientUnits="userSpaceOnUse" x1="1742.097" y1="-4508.7886" x2="1742.097" y2="-4350.792" gradientTransform="matrix(0 -1 1 0 4571.3452 1893.0966)">
				<stop  offset="0" style="stop-color:#C8C8C8"/>
				<stop  offset="1" style="stop-color:#777777"/>
			</linearGradient>
			<path fill="#F1F2F2" stroke="url(#SVGID_4_)" stroke-width="0.8744" stroke-miterlimit="10" d="M220.116,104.122v93.754
				c0,1.706-1.396,3.102-3.102,3.102H66.095c-1.706,0-3.102-1.396-3.102-3.102v-93.754c0-1.706,1.396-3.102,3.102-3.102h150.919
				C218.721,101.021,220.116,102.416,220.116,104.122z"/>
			<rect x="67.071" y="105.398" fill="#0C486C" width="148.969" height="88.463"/>
			<linearGradient id="SVGID_5_" gradientUnits="userSpaceOnUse" x1="194.5788" y1="197.5782" x2="201.9876" y2="197.5782">
				<stop  offset="0" style="stop-color:#EEEFEF"/>
				<stop  offset="1" style="stop-color:#A4A6A9"/>
			</linearGradient>
			<linearGradient id="SVGID_6_" gradientUnits="userSpaceOnUse" x1="194.5125" y1="197.5782" x2="202.0539" y2="197.5782">
				<stop  offset="0" style="stop-color:#B9BBBD"/>
				<stop  offset="1" style="stop-color:#6D6E71"/>
			</linearGradient>
			<path fill="url(#SVGID_5_)" stroke="url(#SVGID_6_)" stroke-width="0.1327" stroke-miterlimit="10" d="M201.625,198.232h-6.684
				c-0.199,0-0.362-0.163-0.362-0.362v-0.583c0-0.199,0.163-0.363,0.362-0.363h6.684c0.199,0,0.362,0.163,0.362,0.363v0.583
				C201.988,198.069,201.824,198.232,201.625,198.232z"/>
			<linearGradient id="SVGID_7_" gradientUnits="userSpaceOnUse" x1="192.2594" y1="197.5782" x2="193.5668" y2="197.5782">
				<stop  offset="0" style="stop-color:#EEEFEF"/>
				<stop  offset="1" style="stop-color:#A4A6A9"/>
			</linearGradient>
			<linearGradient id="SVGID_8_" gradientUnits="userSpaceOnUse" x1="192.2145" y1="198.1046" x2="193.6116" y2="197.0518">
				<stop  offset="0" style="stop-color:#B9BBBD"/>
				<stop  offset="1" style="stop-color:#6D6E71"/>
			</linearGradient>
			<path fill="url(#SVGID_7_)" stroke="url(#SVGID_8_)" stroke-width="0.1327" stroke-miterlimit="10" d="M193.3,198.232h-0.774
				c-0.147,0-0.267-0.12-0.267-0.267v-0.774c0-0.147,0.12-0.267,0.267-0.267h0.774c0.147,0,0.267,0.12,0.267,0.267v0.774
				C193.567,198.112,193.447,198.232,193.3,198.232z"/>
			<linearGradient id="SVGID_9_" gradientUnits="userSpaceOnUse" x1="190.0486" y1="197.5782" x2="191.3559" y2="197.5782">
				<stop  offset="0" style="stop-color:#EEEFEF"/>
				<stop  offset="1" style="stop-color:#A4A6A9"/>
			</linearGradient>
			<linearGradient id="SVGID_10_" gradientUnits="userSpaceOnUse" x1="190.0037" y1="198.1046" x2="191.4008" y2="197.0518">
				<stop  offset="0" style="stop-color:#B9BBBD"/>
				<stop  offset="1" style="stop-color:#6D6E71"/>
			</linearGradient>
			<path fill="url(#SVGID_9_)" stroke="url(#SVGID_10_)" stroke-width="0.1327" stroke-miterlimit="10" d="M191.089,198.232h-0.774
				c-0.147,0-0.267-0.12-0.267-0.267v-0.774c0-0.147,0.12-0.267,0.267-0.267h0.774c0.147,0,0.267,0.12,0.267,0.267v0.774
				C191.356,198.112,191.236,198.232,191.089,198.232z"/>
			<g display="none">
				<defs>
					<rect id="SVGID_11_" x="67.071" y="105.398" width="148.969" height="88.463"/>
				</defs>
				<clipPath id="SVGID_12_" display="inline">
					<use xlink:href="#SVGID_11_"  overflow="visible"/>
				</clipPath>
				<g display="inline" clip-path="url(#SVGID_12_)">
					<path fill="#FFFFFF" d="M156.581,204.212h-32.374c-9.19,0-16.709-7.519-16.709-16.709v-0.839
						c0-9.19,7.519-16.709,16.709-16.709h32.374c9.19,0,16.709,7.519,16.709,16.709v0.839
						C173.29,196.692,165.771,204.212,156.581,204.212z"/>
					<path fill="#FFD797" d="M162.429,171.154c-1.944-0.771-4.057-1.2-6.267-1.2h-3.81c-2.206,0-4.049-1.679-4.254-3.876
						l-0.803-8.618h-13.802l-0.803,8.618c-0.205,2.196-2.048,3.876-4.254,3.876h-3.81c-2.21,0-4.323,0.429-6.267,1.2
						c5.469,5.951,13.315,9.682,22.035,9.682C149.113,180.836,156.959,177.105,162.429,171.154z"/>
					<path fill="#FFD797" d="M159.99,135.589c0,11.079-9.441,26.305-19.596,26.305c-10.155,0-19.596-15.226-19.596-26.305
						c0-11.079,9.441-17.221,19.596-17.221C150.549,118.367,159.99,124.51,159.99,135.589z"/>
					<g>
						
							<line fill="none" stroke="#37474F" stroke-width="4" stroke-linecap="round" stroke-linejoin="round" stroke-miterlimit="10" x1="129.311" y1="139.179" x2="134.953" y2="139.179"/>
						
							<line fill="none" stroke="#37474F" stroke-width="4" stroke-linecap="round" stroke-linejoin="round" stroke-miterlimit="10" x1="145.835" y1="139.179" x2="151.477" y2="139.179"/>
					</g>
					<path fill="#E65100" d="M134.197,119.526c0,0,17.935-11.184,28.232,5.441c6.519,10.526,4.967,21.914-7.426,35.365
						c0,0,10.148-20.679-0.993-24.984C148.656,133.279,139.134,132.221,134.197,119.526z"/>
					<path fill="#E65100" d="M136.262,120.433c8.941-6.57-42.62-9.219-11.637,39.597C124.625,160.03,120.425,132.07,136.262,120.433
						z"/>
					<path fill="#42A5F5" d="M118.36,171.154c-6.343,2.515-10.862,8.718-10.862,15.929l0,0c0,9.421,7.708,17.129,17.129,17.129
						h15.768l-1.36-26.305C130.315,177.907,123.829,177.105,118.36,171.154z"/>
					<path fill="#42A5F5" d="M162.429,171.154c-5.469,5.951-10.37,6.478-19.089,6.478c0,0-0.169,5.798-0.19,8.327
						c-0.101,11.889-0.46,18.252-0.46,18.252h13.472c9.421,0,17.129-7.708,17.129-17.129l0,0
						C173.29,179.872,168.772,173.669,162.429,171.154z"/>
				</g>
			</g>
			<g>
				<polygon fill="#CCCCCC" points="215.57,193.066 214.649,193.066 67.91,193.066 66.99,193.066 66.99,192.144 66.99,106.113 
					66.99,105.19 67.91,105.19 214.649,105.19 215.57,105.19 215.57,106.113 215.57,192.144 				"/>
				<path fill="#F2F2F2" d="M214.648,106.112v86.032H67.911v-86.032H214.648 M216.49,104.268h-1.841H67.911h-1.841v1.844v86.032
					v1.845h1.841h146.737h1.841v-1.845v-86.032V104.268z"/>
				<circle fill="#DC4951" cx="213.212" cy="197.895" r="1.662"/>
				<rect x="67.911" y="106.112" fill="#6EB1E1" width="146.737" height="55.514"/>
				<rect x="88.47" y="113.629" fill="#FF7E51" width="54.762" height="6.669"/>
				<rect x="88.47" y="124.542" fill="#FF7E51" width="36.004" height="6.669"/>
				<rect x="88.47" y="136.364" fill="#FF7E51" width="53.25" height="2.728"/>
				<rect x="88.47" y="141.214" fill="#FF7E51" width="53.25" height="2.728"/>
				<rect x="88.47" y="146.064" fill="#FF7E51" width="49.013" height="2.729"/>
				<rect x="88.671" y="175.165" fill="#FFFFFF" width="24.711" height="2.218"/>
				<rect x="88.671" y="179.681" fill="#FFFFFF" width="24.711" height="2.218"/>
				<rect x="88.671" y="184.198" fill="#FFFFFF" width="24.711" height="2.218"/>
				<rect x="128.707" y="175.165" fill="#FFFFFF" width="24.711" height="2.218"/>
				<rect x="128.707" y="179.681" fill="#FFFFFF" width="24.711" height="2.218"/>
				<rect x="128.532" y="185.291" fill="#FFFFFF" width="25.057" height="2.249"/>
				<rect x="169.129" y="176.132" fill="#FFFFFF" width="25.057" height="2.249"/>
				<rect x="169.129" y="180.712" fill="#FFFFFF" width="25.057" height="2.249"/>
				<rect x="169.129" y="185.291" fill="#FFFFFF" width="25.057" height="2.249"/>
				<ellipse fill="#4D7C99" cx="172.984" cy="130.302" rx="20.271" ry="20.31"/>
				<ellipse fill="#5990B2" cx="191.523" cy="130.302" rx="11.737" ry="11.76"/>
				<rect x="102.085" y="153.34" fill="#00C9F0" width="19.162" height="4.244"/>
				<ellipse fill="#FFFFFF" cx="100.774" cy="168.447" rx="4.135" ry="4.143"/>
				<rect x="136.248" y="164.253" fill="#FFFFFF" width="8.32" height="8.337"/>
				<polygon fill="#FFFFFF" points="176.368,173.519 184.804,173.519 180.586,164.836 				"/>
				<polygon opacity="0.23" fill="#FFFFFF" points="67.911,106.112 67.911,167.175 141.242,106.112 				"/>
			</g>
		</g>
		<g display="inline">
			
				<linearGradient id="SVGID_13_" gradientUnits="userSpaceOnUse" x1="2888.0874" y1="-1447.4451" x2="2891.8711" y2="-1450.2963" gradientTransform="matrix(1 0 0 -1 -2772.3457 -1202.7684)">
				<stop  offset="0" style="stop-color:#C8C8C8"/>
				<stop  offset="1" style="stop-color:#777777"/>
			</linearGradient>
			<path fill="#A7A9AC" stroke="url(#SVGID_13_)" stroke-width="0.1679" stroke-miterlimit="10" d="M120.007,245.604h-2.374h-2.374
				c-0.052,0-0.099,0.015-0.133,0.04c-0.034,0.025-0.056,0.059-0.056,0.097v0.361v0.361c0,0.038,0.021,0.072,0.056,0.097
				c0.034,0.025,0.081,0.04,0.133,0.04c0,0,1.78-0.137,2.374-0.137c0.593,0,2.374,0.137,2.374,0.137c0.052,0,0.099-0.015,0.133-0.04
				c0.034-0.025,0.055-0.059,0.055-0.097v-0.361v-0.361c0-0.038-0.021-0.072-0.055-0.097
				C120.107,245.62,120.059,245.604,120.007,245.604z"/>
			
				<linearGradient id="SVGID_14_" gradientUnits="userSpaceOnUse" x1="2873.4734" y1="-1447.6281" x2="2876.7715" y2="-1450.1133" gradientTransform="matrix(1 0 0 -1 -2772.3457 -1202.7684)">
				<stop  offset="0" style="stop-color:#C8C8C8"/>
				<stop  offset="1" style="stop-color:#777777"/>
			</linearGradient>
			<path fill="#A7A9AC" stroke="url(#SVGID_14_)" stroke-width="0.1551" stroke-miterlimit="10" d="M104.802,245.604h-2.025h-2.025
				c-0.044,0-0.085,0.015-0.114,0.04c-0.029,0.025-0.047,0.059-0.047,0.097v0.361v0.361c0,0.038,0.018,0.072,0.047,0.097
				c0.029,0.025,0.07,0.04,0.114,0.04c0,0,1.519-0.137,2.025-0.137c0.506,0,2.025,0.137,2.025,0.137c0.044,0,0.085-0.015,0.114-0.04
				c0.029-0.025,0.047-0.059,0.047-0.097v-0.361v-0.361c0-0.038-0.018-0.072-0.047-0.097
				C104.886,245.62,104.846,245.604,104.802,245.604z"/>
			
				<linearGradient id="SVGID_15_" gradientUnits="userSpaceOnUse" x1="-1447.8066" y1="-2736.0063" x2="-1440.9587" y2="-2741.1665" gradientTransform="matrix(-4.489700e-011 -1 -1 4.489700e-011 -2605.3721 -1245.7389)">
				<stop  offset="0" style="stop-color:#C8C8C8"/>
				<stop  offset="1" style="stop-color:#777777"/>
			</linearGradient>
			<path fill="#E6E7E8" stroke="url(#SVGID_15_)" stroke-width="0.2959" stroke-miterlimit="10" d="M132.404,194.386v8.516
				c0,0.347,0.284,0.631,0.631,0.631h0.36c0.347,0,0.631-0.284,0.631-0.631v-8.516c0-0.347-0.284-0.631-0.631-0.631h-0.36
				C132.688,193.755,132.404,194.039,132.404,194.386z"/>
			
				<linearGradient id="SVGID_16_" gradientUnits="userSpaceOnUse" x1="-1492.0171" y1="-2697.7585" x2="-1429.4509" y2="-2697.7585" gradientTransform="matrix(-4.489700e-011 -1 -1 4.489700e-011 -2605.3721 -1245.7389)">
				<stop  offset="0" style="stop-color:#C8C8C8"/>
				<stop  offset="1" style="stop-color:#777777"/>
			</linearGradient>
			<path fill="#F1F2F2" stroke="url(#SVGID_16_)" stroke-width="0.3521" stroke-miterlimit="10" d="M51.683,187.197v55.596
				c0,1.82,1.489,3.309,3.309,3.309h74.789c1.82,0,3.309-1.489,3.309-3.309v-55.596c0-1.82-1.489-3.309-3.309-3.309H54.992
				C53.172,183.888,51.683,185.377,51.683,187.197z"/>
			<rect x="59.956" y="190.396" fill="#0C486C" width="65.744" height="49.198"/>
			
				<linearGradient id="SVGID_17_" gradientUnits="userSpaceOnUse" x1="-1461.4648" y1="-2734.675" x2="-1460.0033" y2="-2734.675" gradientTransform="matrix(-4.489700e-011 -1 -1 4.489700e-011 -2605.3721 -1245.7389)">
				<stop  offset="0" style="stop-color:#C8C8C8"/>
				<stop  offset="1" style="stop-color:#777777"/>
			</linearGradient>
			
				<circle fill="#231F20" stroke="url(#SVGID_17_)" stroke-width="0.2113" stroke-miterlimit="10" cx="129.303" cy="214.995" r="0.625"/>
			
				<linearGradient id="SVGID_18_" gradientUnits="userSpaceOnUse" x1="-1462.2832" y1="-2662.5845" x2="-1459.1849" y2="-2659.4861" gradientTransform="matrix(-4.489700e-011 -1 -1 4.489700e-011 -2605.3721 -1245.7389)">
				<stop  offset="0" style="stop-color:#FFFFFF"/>
				<stop  offset="1" style="stop-color:#D1D3D4"/>
			</linearGradient>
			
				<linearGradient id="SVGID_19_" gradientUnits="userSpaceOnUse" x1="-1462.74" y1="-2659.9688" x2="-1458.728" y2="-2662.1018" gradientTransform="matrix(-4.489700e-011 -1 -1 4.489700e-011 -2605.3721 -1245.7389)">
				<stop  offset="0" style="stop-color:#C8C8C8"/>
				<stop  offset="1" style="stop-color:#A7A9AC"/>
			</linearGradient>
			
				<circle fill="url(#SVGID_18_)" stroke="url(#SVGID_19_)" stroke-width="0.1614" stroke-miterlimit="10" cx="55.663" cy="214.995" r="2.191"/>
			
				<linearGradient id="SVGID_20_" gradientUnits="userSpaceOnUse" x1="-1461.6111" y1="-2660.3743" x2="-1459.8569" y2="-2661.6963" gradientTransform="matrix(-4.489700e-011 -1 -1 4.489700e-011 -2605.3721 -1245.7389)">
				<stop  offset="0" style="stop-color:#C8C8C8"/>
				<stop  offset="1" style="stop-color:#777777"/>
			</linearGradient>
			<path fill="#F1F2F2" stroke="url(#SVGID_20_)" stroke-width="0.1514" stroke-miterlimit="10" d="M54.836,214.506v0.979
				c0,0.186,0.152,0.337,0.337,0.337h0.979c0.186,0,0.337-0.152,0.337-0.337v-0.979c0-0.186-0.152-0.338-0.337-0.338h-0.979
				C54.988,214.168,54.836,214.32,54.836,214.506z"/>
		</g>
		<g display="inline">
			
				<linearGradient id="SVGID_21_" gradientUnits="userSpaceOnUse" x1="-25.7455" y1="-604.4978" x2="-23.0939" y2="-606.4959" gradientTransform="matrix(0 -1 -1 0 -375.0179 166.9737)">
				<stop  offset="0" style="stop-color:#C8C8C8"/>
				<stop  offset="1" style="stop-color:#777777"/>
			</linearGradient>
			<path fill="#A7A9AC" stroke="url(#SVGID_21_)" stroke-width="0.1314" stroke-miterlimit="10" d="M230.131,189.737v1.656v1.656
				c0,0.036,0.011,0.069,0.028,0.093c0.017,0.024,0.041,0.039,0.068,0.039h0.252h0.252c0.026,0,0.05-0.015,0.068-0.039
				c0.017-0.024,0.028-0.057,0.028-0.093c0,0-0.096-1.242-0.096-1.656s0.096-1.656,0.096-1.656c0-0.036-0.011-0.069-0.028-0.093
				c-0.017-0.024-0.041-0.039-0.068-0.039h-0.252h-0.252c-0.026,0-0.05,0.015-0.068,0.039
				C230.142,189.668,230.131,189.701,230.131,189.737z"/>
			
				<linearGradient id="SVGID_22_" gradientUnits="userSpaceOnUse" x1="-32.2503" y1="-604.6325" x2="-29.9384" y2="-606.3746" gradientTransform="matrix(0 -1 -1 0 -375.0179 166.9737)">
				<stop  offset="0" style="stop-color:#C8C8C8"/>
				<stop  offset="1" style="stop-color:#777777"/>
			</linearGradient>
			<path fill="#A7A9AC" stroke="url(#SVGID_22_)" stroke-width="0.1214" stroke-miterlimit="10" d="M230.138,196.655v1.413v1.413
				c0,0.031,0.011,0.059,0.028,0.079c0.017,0.02,0.041,0.033,0.068,0.033h0.252h0.252c0.026,0,0.05-0.013,0.068-0.033
				c0.017-0.02,0.028-0.048,0.028-0.079c0,0-0.096-1.06-0.096-1.413c0-0.353,0.096-1.413,0.096-1.413
				c0-0.031-0.011-0.059-0.028-0.079c-0.017-0.02-0.041-0.033-0.068-0.033h-0.252h-0.252c-0.026,0-0.05,0.013-0.068,0.033
				C230.149,196.596,230.138,196.624,230.138,196.655z"/>
			
				<linearGradient id="SVGID_23_" gradientUnits="userSpaceOnUse" x1="-37.1867" y1="-604.6258" x2="-34.8748" y2="-606.3679" gradientTransform="matrix(0 -1 -1 0 -375.0179 166.9737)">
				<stop  offset="0" style="stop-color:#C8C8C8"/>
				<stop  offset="1" style="stop-color:#777777"/>
			</linearGradient>
			<path fill="#A7A9AC" stroke="url(#SVGID_23_)" stroke-width="0.1214" stroke-miterlimit="10" d="M230.131,201.591v1.413v1.413
				c0,0.031,0.011,0.059,0.028,0.079c0.017,0.02,0.041,0.033,0.068,0.033h0.252h0.252c0.026,0,0.05-0.013,0.068-0.033
				c0.017-0.02,0.028-0.049,0.028-0.079c0,0-0.096-1.06-0.096-1.413c0-0.353,0.096-1.413,0.096-1.413
				c0-0.031-0.011-0.059-0.028-0.079c-0.017-0.02-0.041-0.033-0.068-0.033h-0.252h-0.252c-0.026,0-0.05,0.013-0.068,0.033
				C230.142,201.532,230.131,201.56,230.131,201.591z"/>
			
				<linearGradient id="SVGID_24_" gradientUnits="userSpaceOnUse" x1="-625.9154" y1="181.6801" x2="-622.2551" y2="178.9218" gradientTransform="matrix(-1 0 0 1 -417.9883 0)">
				<stop  offset="0" style="stop-color:#C8C8C8"/>
				<stop  offset="1" style="stop-color:#777777"/>
			</linearGradient>
			<path fill="#E6E7E8" stroke="url(#SVGID_24_)" stroke-width="0.1433" stroke-miterlimit="10" d="M203.658,180.573h4.878
				c0.15,0,0.272-0.122,0.272-0.272l0,0c0-0.15-0.122-0.272-0.272-0.272h-4.878c-0.15,0-0.272,0.122-0.272,0.272l0,0
				C203.386,180.451,203.508,180.573,203.658,180.573z"/>
			
				<linearGradient id="SVGID_25_" gradientUnits="userSpaceOnUse" x1="-648.5596" y1="208.6599" x2="-618.632" y2="208.6599" gradientTransform="matrix(-1 0 0 1 -417.9883 0)">
				<stop  offset="0" style="stop-color:#C8C8C8"/>
				<stop  offset="1" style="stop-color:#777777"/>
			</linearGradient>
			<path fill="#F1F2F2" stroke="url(#SVGID_25_)" stroke-width="0.1714" stroke-miterlimit="10" d="M202.634,236.836h25.948
				c1.047,0,1.904-0.857,1.904-1.904v-52.543c0-1.047-0.857-1.904-1.904-1.904h-25.948c-1.047,0-1.904,0.857-1.904,1.904v52.543
				C200.729,235.979,201.586,236.836,202.634,236.836z"/>
			<rect x="201.462" y="186.965" fill="#0C486C" width="28.292" height="43.451"/>
			
				<linearGradient id="SVGID_26_" gradientUnits="userSpaceOnUse" x1="-634.9023" y1="232.3795" x2="-632.2894" y2="234.9925" gradientTransform="matrix(-1 0 0 1 -417.9883 0)">
				<stop  offset="0" style="stop-color:#FFFFFF"/>
				<stop  offset="1" style="stop-color:#D1D3D4"/>
			</linearGradient>
			
				<linearGradient id="SVGID_27_" gradientUnits="userSpaceOnUse" x1="-635.295" y1="234.5894" x2="-631.8967" y2="232.7825" gradientTransform="matrix(-1 0 0 1 -417.9883 0)">
				<stop  offset="0" style="stop-color:#C8C8C8"/>
				<stop  offset="1" style="stop-color:#A7A9AC"/>
			</linearGradient>
			
				<circle fill="url(#SVGID_26_)" stroke="url(#SVGID_27_)" stroke-width="0.1527" stroke-miterlimit="10" cx="215.608" cy="233.686" r="1.848"/>
			<path fill="#231F20" d="M213.091,184.167h5.033c0.141,0,0.257-0.116,0.257-0.257v-0.105c0-0.141-0.116-0.257-0.257-0.257h-5.033
				c-0.141,0-0.257,0.116-0.257,0.257v0.105C212.835,184.051,212.95,184.167,213.091,184.167z"/>
			
				<linearGradient id="SVGID_28_" gradientUnits="userSpaceOnUse" x1="-634.3417" y1="234.2481" x2="-632.8499" y2="233.1239" gradientTransform="matrix(-1 0 0 1 -417.9883 0)">
				<stop  offset="0" style="stop-color:#C8C8C8"/>
				<stop  offset="1" style="stop-color:#777777"/>
			</linearGradient>
			<path fill="#F1F2F2" stroke="url(#SVGID_28_)" stroke-width="0.1433" stroke-miterlimit="10" d="M215.195,234.383h0.825
				c0.157,0,0.285-0.128,0.285-0.285v-0.826c0-0.157-0.128-0.285-0.285-0.285h-0.825c-0.157,0-0.285,0.128-0.285,0.285v0.826
				C214.91,234.255,215.038,234.383,215.195,234.383z"/>
			
				<linearGradient id="SVGID_29_" gradientUnits="userSpaceOnUse" x1="-639.5818" y1="183.8577" x2="-638.1456" y2="183.8577" gradientTransform="matrix(-1 0 0 1 -417.9883 0)">
				<stop  offset="0" style="stop-color:#C8C8C8"/>
				<stop  offset="1" style="stop-color:#777777"/>
			</linearGradient>
			
				<circle fill="#231F20" stroke="url(#SVGID_29_)" stroke-width="0.2289" stroke-miterlimit="10" cx="220.875" cy="183.858" r="0.604"/>
		</g>
	</g>
</g>
<g id="Слой_3">
	<g>
		<path opacity="0.1098" d="M206.104,107.006H60.611v90.223h140.971l0,0l0,0c0.282-0.464,0.79-0.77,1.372-0.77
			c0.583,0,1.089,0.306,1.372,0.77l0,0l0,0h1.779v-2.925h-1.766H62.848h-1.773v-1.779v-82.793v-1.78h1.773h141.491h1.766V107.006"/>
		<path opacity="0.1098" d="M60.611,107.006L60.611,107.006h145.494v0.946h0.007v1.78v82.793v1.779h-0.007v2.925h-1.779
			c0.144,0.245,0.232,0.527,0.232,0.833c0,0.884-0.721,1.598-1.604,1.598c-0.884,0-1.604-0.714-1.604-1.598
			c0-0.307,0.087-0.588,0.231-0.833H60.611V107.006 M206.104,101.511H60.611c-3.032,0-5.494,2.462-5.494,5.495v90.223
			c0,3.039,2.462,5.501,5.494,5.501h57.432v-0.444h31.169v0.444h56.893c3.033,0,5.495-2.462,5.495-5.501v-90.223
			C211.599,103.973,209.137,101.511,206.104,101.511"/>
		<path opacity="0.1098" d="M121.301,188.095v-2.162h24.158v2.162H121.301 M160.445,188.095v-2.162h24.165v2.162H160.445
			 M82.865,187.012v-2.131h23.827v2.131H82.865 M160.445,183.69v-2.168h24.165v2.168H160.445 M82.865,182.663v-2.13h23.827v2.13
			H82.865 M121.47,182.663v-2.13h23.827v2.13H121.47 M160.445,179.28v-2.162h24.165v2.162H160.445 M82.865,178.322v-2.137h23.827
			v2.137H82.865 M121.47,178.322v-2.137h23.827v2.137H121.47 M167.425,174.6l4.066-8.358l4.072,8.358H167.425 M94.537,173.704
			c-2.205,0-3.991-1.785-3.991-3.984c0-2.199,1.786-3.991,3.991-3.991c2.199,0,3.985,1.792,3.985,3.991
			C98.521,171.918,96.735,173.704,94.537,173.704 M128.744,173.704v-8.019h8.02v8.019H128.744 M204.339,163.154H69.276l-6.428,5.344
			v24.027h141.491V163.154"/>
		<path opacity="0.1098" d="M133.555,109.731L133.555,109.731h70.784v53.422v29.371H62.848v-82.793v53.422v5.344v-58.766H133.555
			 M206.111,107.952h-0.007h-1.766H62.848h-1.773v1.78v82.793v1.779h1.773h141.491h1.766h0.007v-1.779v-82.793V107.952"/>
		<polyline opacity="0.2078" points="62.848,109.731 62.848,192.525 204.339,192.525 62.848,192.525 62.848,168.498 62.848,163.154 
			62.848,109.731 		"/>
		<path opacity="0.1098" d="M149.212,202.286h-31.169v0.444v15.691c9.449,0.007,21.828,0.019,31.169,0.027V202.73V202.286"/>
		<path opacity="0.1098" d="M104.555,218.412c-2.35,0-2.237,1.235-2.237,1.235s0,1.372,0,2.537c0,1.193,1.894,1.241,2.196,1.241
			h0.04c0,0,49.068-0.025,57.839-0.025c2.569,0,2.619-1.252,2.619-1.252s0-1.611,0-2.45c0-1.151-1.618-1.237-2.102-1.237
			c-0.085,0-0.134,0.003-0.134,0.003s-5.708-0.006-13.564-0.014c-9.341-0.008-21.72-0.02-31.169-0.027
			C111.42,218.416,106.237,218.412,104.555,218.412"/>
		<path opacity="0.1098" d="M202.954,196.459c-0.58,0-1.09,0.308-1.371,0.77c-0.148,0.243-0.232,0.527-0.232,0.833
			c0,0.884,0.719,1.598,1.604,1.598c0.883,0,1.604-0.714,1.604-1.598c0-0.306-0.086-0.59-0.233-0.833
			C204.043,196.767,203.534,196.459,202.954,196.459"/>
		<path opacity="0.1098" d="M95.796,159.263v-4.084h18.482v4.084H95.796 M164.161,152.554c-10.795,0-19.54-8.747-19.54-19.547
			c0-10.795,8.746-19.541,19.54-19.541c10.794,0,19.546,8.746,19.546,19.541C183.707,143.807,174.954,152.554,164.161,152.554
			 M204.339,109.731h-70.784l-8.696,7.23h10.613v6.421h-18.344l-4.912,4.084h5.169v6.416h-12.888l-5.97,4.962h35.491v2.625H95.37
			l-2.462,2.043h41.111v2.625H89.75l-2.456,2.042h42.64v2.625H84.137l-14.861,12.349h135.063V109.731"/>
		<polyline opacity="0.1098" points="135.472,116.962 124.856,116.962 117.13,123.383 135.472,123.383 135.472,116.962 		"/>
		<polyline opacity="0.1098" points="117.386,127.467 112.215,127.467 104.496,133.883 117.386,133.883 117.386,127.467 		"/>
		<polyline opacity="0.1098" points="134.019,138.845 98.526,138.845 95.367,141.47 134.019,141.47 134.019,138.845 		"/>
		<polyline opacity="0.1098" points="134.019,143.513 92.91,143.513 89.751,146.138 134.019,146.138 134.019,143.513 		"/>
		<polyline opacity="0.1098" points="129.934,148.18 87.294,148.18 84.136,150.805 129.934,150.805 129.934,148.18 		"/>
		<polyline opacity="0.1098" points="106.691,176.185 82.865,176.185 82.865,178.322 106.691,178.322 106.691,176.185 		"/>
		<polyline opacity="0.1098" points="106.691,180.533 82.865,180.533 82.865,182.663 106.691,182.663 106.691,180.533 		"/>
		<polyline opacity="0.1098" points="106.691,184.881 82.865,184.881 82.865,187.012 106.691,187.012 106.691,184.881 		"/>
		<polyline opacity="0.1098" points="145.296,176.185 121.47,176.185 121.47,178.322 145.296,178.322 145.296,176.185 		"/>
		<polyline opacity="0.1098" points="145.296,180.533 121.47,180.533 121.47,182.663 145.296,182.663 145.296,180.533 		"/>
		<polyline opacity="0.1098" points="145.459,185.934 121.301,185.934 121.301,188.095 145.459,188.095 145.459,185.934 		"/>
		<polyline opacity="0.1098" points="184.61,177.119 160.445,177.119 160.445,179.28 184.61,179.28 184.61,177.119 		"/>
		<polyline opacity="0.1098" points="184.61,181.522 160.445,181.522 160.445,183.69 184.61,183.69 184.61,181.522 		"/>
		<polyline opacity="0.1098" points="184.61,185.934 160.445,185.934 160.445,188.095 184.61,188.095 184.61,185.934 		"/>
		<path opacity="0.1098" d="M164.161,113.465c-10.795,0-19.54,8.746-19.54,19.541c0,10.801,8.746,19.547,19.54,19.547
			c10.794,0,19.546-8.747,19.546-19.547C183.707,122.211,174.954,113.465,164.161,113.465"/>
		<polyline opacity="0.1098" points="114.278,155.179 95.796,155.179 95.796,159.263 114.278,159.263 114.278,155.179 		"/>
		<path opacity="0.1098" d="M94.537,165.728c-2.205,0-3.991,1.792-3.991,3.991c0,2.199,1.786,3.984,3.991,3.984
			c2.199,0,3.985-1.785,3.985-3.984C98.521,167.521,96.735,165.728,94.537,165.728"/>
		<polyline opacity="0.1098" points="136.763,165.685 128.744,165.685 128.744,173.704 136.763,173.704 136.763,165.685 		"/>
		<polyline opacity="0.1098" points="171.491,166.242 167.425,174.6 175.562,174.6 171.491,166.242 		"/>
		<polyline opacity="0.1098" points="69.278,163.154 62.848,163.154 62.848,168.498 69.278,163.154 		"/>
		<polyline opacity="0.1098" points="133.555,109.731 62.848,109.731 62.848,163.154 69.278,163.154 84.136,150.805 82.671,150.805 
			82.671,148.18 87.294,148.18 89.751,146.138 82.671,146.138 82.671,143.513 92.91,143.513 95.367,141.47 82.671,141.47 
			82.671,138.845 98.526,138.845 104.496,133.883 82.671,133.883 82.671,127.467 112.215,127.467 117.13,123.383 82.671,123.383 
			82.671,116.962 124.856,116.962 133.555,109.731 		"/>
		<polyline opacity="0.1098" points="124.856,116.962 82.671,116.962 82.671,123.383 117.13,123.383 124.856,116.962 		"/>
		<polyline opacity="0.1098" points="112.215,127.467 82.671,127.467 82.671,133.883 104.496,133.883 112.215,127.467 		"/>
		<polyline opacity="0.1098" points="98.526,138.845 82.671,138.845 82.671,141.47 95.367,141.47 98.526,138.845 		"/>
		<polyline opacity="0.1098" points="92.91,143.513 82.671,143.513 82.671,146.138 89.751,146.138 92.91,143.513 		"/>
		<polyline opacity="0.1098" points="87.294,148.18 82.671,148.18 82.671,150.805 84.136,150.805 87.294,148.18 		"/>
		<path fill="#666666" d="M214.387,198.205H68.897c-1.517,0-2.749-1.231-2.749-2.749v-90.223c0-1.517,1.231-2.749,2.749-2.749
			h145.49c1.518,0,2.749,1.232,2.749,2.749v90.223C217.135,196.974,215.904,198.205,214.387,198.205z"/>
		<path fill="#666666" d="M214.386,105.232v90.223H68.896v-90.223H214.386 M214.386,99.736H68.896c-3.035,0-5.497,2.46-5.497,5.497
			v90.223c0,3.037,2.461,5.498,5.497,5.498h145.49c3.035,0,5.496-2.461,5.496-5.498v-90.223
			C219.883,102.196,217.421,99.736,214.386,99.736z"/>
		<polygon fill="#CCCCCC" points="213.509,191.638 212.621,191.638 71.129,191.638 70.242,191.638 70.242,190.751 70.242,107.956 
			70.242,107.068 71.129,107.068 212.621,107.068 213.509,107.068 213.509,107.956 213.509,190.751 		"/>
		<path fill="#F2F2F2" d="M212.62,107.955v82.796H71.13v-82.796H212.62 M214.396,106.18h-1.775H71.13h-1.775v1.774v82.796v1.775
			h1.775h141.49h1.775v-1.775v-82.796V106.18z"/>
		<rect x="126.328" y="200.508" fill="#4D4D4D" width="31.167" height="19.517"/>
		<path fill="#666666" d="M110.599,217.871c0,0-0.109-1.232,2.239-1.232c6.104,0,58.223,0.048,58.223,0.048s2.235-0.117,2.235,1.236
			c0,0.84,0,2.451,0,2.451s-0.053,1.253-2.617,1.253c-8.773,0-57.84,0.021-57.84,0.021s-2.239,0.055-2.239-1.238
			C110.599,219.241,110.599,217.871,110.599,217.871z"/>
		<circle fill="#DC4951" cx="211.236" cy="196.286" r="1.603"/>
		<rect x="71.13" y="107.955" fill="#FFFFFF" width="141.49" height="53.426"/>
		<rect x="90.953" y="115.189" fill="#FF7E51" width="52.804" height="6.418"/>
		<rect x="90.953" y="125.691" fill="#FF7E51" width="34.717" height="6.418"/>
		<rect x="90.953" y="137.069" fill="#FF7E51" width="51.346" height="2.625"/>
		<rect x="90.953" y="141.736" fill="#FF7E51" width="51.346" height="2.625"/>
		<rect x="90.953" y="146.404" fill="#FF7E51" width="47.26" height="2.626"/>
		<rect x="91.148" y="174.411" fill="#FFFFFF" width="23.828" height="2.134"/>
		<rect x="91.148" y="178.757" fill="#FFFFFF" width="23.828" height="2.134"/>
		<rect x="91.148" y="183.104" fill="#FFFFFF" width="23.828" height="2.134"/>
		<rect x="129.752" y="174.411" fill="#FFFFFF" width="23.828" height="2.134"/>
		<rect x="129.752" y="178.757" fill="#FFFFFF" width="23.828" height="2.134"/>
		<rect x="129.584" y="184.155" fill="#FFFFFF" width="24.161" height="2.165"/>
		<rect x="168.729" y="175.341" fill="#FFFFFF" width="24.161" height="2.164"/>
		<rect x="168.729" y="179.749" fill="#FFFFFF" width="24.161" height="2.164"/>
		<rect x="168.729" y="184.155" fill="#FFFFFF" width="24.161" height="2.165"/>
		<circle fill="#808285" cx="172.445" cy="131.234" r="19.547"/>
		<circle fill="#999999" cx="190.322" cy="131.234" r="11.318"/>
		<rect x="104.082" y="153.406" fill="#00C9F0" width="18.476" height="4.084"/>
		<circle fill="#FFFFFF" cx="102.817" cy="167.945" r="3.988"/>
		<rect x="137.024" y="163.909" fill="#FFFFFF" width="8.023" height="8.023"/>
		<polygon fill="#FFFFFF" points="175.709,172.827 183.844,172.827 179.776,164.47 		"/>
		<polygon opacity="0.23" fill="#FFFFFF" points="71.13,107.955 71.13,166.721 141.839,107.955 		"/>
	</g>
	<g>
		<path opacity="0.1804" d="M141.977,188.428c0,0-84.196,0-87.824,0c-3.627,0-3.364,3.428-3.364,3.428v53.767
			c0,0-0.263,3.558,3.364,3.558c3.627,0,83.163,0,87.436,0c3.865,0,3.496-3.558,3.496-3.558s0-50.873,0-54.03
			C145.085,188.428,141.977,188.428,141.977,188.428"/>
		<path fill="#666666" d="M54.961,242.044v-53.767c0,0-0.26-3.427,3.368-3.427c3.627,0,87.822,0,87.822,0s3.109,0,3.109,3.161
			c0,3.164,0,54.032,0,54.032s0.368,3.559-3.497,3.559c-4.274,0-83.807,0-87.434,0C54.701,245.604,54.961,242.044,54.961,242.044z"
			/>
		<rect x="60.286" y="189.285" fill="#FFFFFF" width="80.776" height="51.966"/>
		<path fill="#E6E6E6" d="M141.362,188.987v52.563H59.989v-52.563H141.362 M140.766,189.582H60.585v51.372h80.181V189.582z"/>
		<path fill="#B3B3B3" d="M146.28,220.62c0,0.66-0.533,1.192-1.192,1.192c-0.659,0-1.192-0.533-1.192-1.192v-11.128
			c0-0.659,0.533-1.191,1.192-1.191c0.659,0,1.192,0.532,1.192,1.191V220.62z"/>
		<rect x="72.02" y="203.279" fill="#999999" width="24.014" height="2.842"/>
		<rect x="72.02" y="208.332" fill="#999999" width="20.147" height="2.844"/>
		<rect x="72.02" y="214.244" fill="#999999" width="24.014" height="1.533"/>
		<rect x="72.02" y="216.97" fill="#999999" width="20.147" height="1.533"/>
		<circle fill="#999999" cx="118.241" cy="216.316" r="15.055"/>
		<rect x="72.02" y="225.149" fill="#00C9F0" width="20.351" height="3.439"/>
		<rect x="59.988" y="188.987" fill="#00C9F0" width="81.373" height="7.06"/>
		<polygon fill="#00C9F0" points="102.367,235.596 100.088,237.876 97.809,235.596 97.367,236.036 100.088,238.758 102.808,236.036 
					"/>
		<polygon opacity="0.23" fill="#FFFFFF" points="59.989,188.987 59.989,213.385 99.913,188.987 		"/>
	</g>
	<g>
		<path opacity="0.1804" d="M227.555,181.698l-0.081,0.003h-29.415l-0.085-0.003c-0.374,0-1.857,0.129-1.857,2.183
			c0,2.342,0,53.811,0,56.573c0,2.1,1.371,2.268,1.809,2.268c0.083,0,0.133-0.005,0.133-0.005s27.829,0,29.559,0
			c1.729,0,1.729-2.011,1.729-2.011s0-54.482,0-56.825C229.346,181.827,227.915,181.698,227.555,181.698"/>
		<path fill="#666666" d="M201.892,176.595h29.413c0,0,1.874-0.168,1.874,2.18c0,2.344,0,56.824,0,56.824s0,2.011-1.729,2.011
			c-1.73,0-29.558,0-29.558,0s-1.947,0.239-1.947-2.263c0-2.765,0-54.228,0-56.572C199.945,176.427,201.892,176.595,201.892,176.595
			z"/>
		<rect x="202.163" y="180.991" fill="#FFFFFF" width="28.752" height="50.435"/>
		<circle fill="#4D4D4D" cx="216.72" cy="178.959" r="1.229"/>
		<circle fill="#F2F2F2" cx="216.72" cy="178.959" r="0.388"/>
		<circle fill="#B3B3B3" cx="216.711" cy="234.389" r="1.95"/>
		<rect x="205.23" y="215.908" fill="#999999" width="20.508" height="2.746"/>
		<rect x="205.23" y="220.79" fill="#999999" width="17.206" height="2.747"/>
		<circle fill="#999999" cx="216.808" cy="200.842" r="11.578"/>
		<rect x="205.053" y="226.203" fill="#00C9F0" width="21.846" height="3.11"/>
		<rect x="202.163" y="180.991" fill="#00C9F0" width="28.752" height="5.558"/>
		<polyline fill="#FFFFFF" points="203.467,182.375 208.029,182.375 208.029,181.924 203.467,181.924 		"/>
		<polyline fill="#FFFFFF" points="203.467,185.148 208.029,185.148 208.029,184.698 203.467,184.698 		"/>
		<polyline fill="#FFFFFF" points="203.467,183.719 208.029,183.719 208.029,183.268 203.467,183.268 		"/>
		<polygon opacity="0.23" fill="#FFFFFF" points="202.163,180.991 230.915,180.991 202.163,210.452 		"/>
	</g>
</g>
</svg>
