<?xml version="1.0" encoding="utf-8"?>
<!-- Generator: Adobe Illustrator 17.0.1, SVG Export Plug-In . SVG Version: 6.00 Build 0)  -->
<!DOCTYPE svg PUBLIC "-//W3C//DTD SVG 1.1//EN" "http://www.w3.org/Graphics/SVG/1.1/DTD/svg11.dtd">
<svg version="1.1" id="Слой_1" xmlns="http://www.w3.org/2000/svg" xmlns:xlink="http://www.w3.org/1999/xlink" x="0px" y="0px"
	 width="27.992px" height="23.01px" viewBox="0 0 27.992 23.01" enable-background="new 0 0 27.992 23.01" xml:space="preserve">
<path fill="#ED6E5B" d="M18.358,5.924c-1.801,2.458-2.702,5.236-2.702,8.337c0,2.664,0.663,4.789,1.985,6.373
	c1.324,1.584,2.897,2.376,4.72,2.376c1.563,0,2.891-0.584,3.988-1.756c1.095-1.17,1.644-2.527,1.644-4.065
	c0-1.47-0.478-2.739-1.432-3.806c-0.955-1.069-2.052-1.602-3.288-1.602c-1.064,0-1.942,0.265-2.636,0.792
	c-0.218,0.161-0.38,0.241-0.489,0.241s-0.206-0.069-0.292-0.206c-0.131-0.208-0.195-0.529-0.195-0.966
	c0-2.019,0.64-3.966,1.919-5.839c1.281-1.87,3.05-3.242,5.306-4.115V0C23,1.492,20.158,3.468,18.358,5.924L18.358,5.924z
	 M2.702,5.924C0.9,8.381,0,11.16,0,14.261c0,2.664,0.661,4.789,1.985,6.373c1.324,1.584,2.897,2.376,4.72,2.376
	c1.563,0,2.891-0.584,3.988-1.756c1.095-1.17,1.644-2.527,1.644-4.065c0-1.47-0.478-2.739-1.433-3.806
	c-0.955-1.069-2.05-1.602-3.286-1.602c-1.064,0-1.942,0.265-2.637,0.792c-0.217,0.161-0.38,0.241-0.487,0.241
	c-0.109,0-0.206-0.069-0.294-0.206c-0.129-0.208-0.195-0.529-0.195-0.966c0-2.019,0.64-3.966,1.921-5.839
	c1.28-1.87,3.048-3.242,5.306-4.115V0C7.345,1.492,4.503,3.468,2.702,5.924L2.702,5.924z"/>
</svg>
