<?xml version="1.0" encoding="utf-8"?>
<!-- Generator: Adobe Illustrator 17.0.1, SVG Export Plug-In . SVG Version: 6.00 Build 0)  -->
<!DOCTYPE svg PUBLIC "-//W3C//DTD SVG 1.1//EN" "http://www.w3.org/Graphics/SVG/1.1/DTD/svg11.dtd">
<svg version="1.1" xmlns="http://www.w3.org/2000/svg" xmlns:xlink="http://www.w3.org/1999/xlink" x="0px" y="0px"
	 width="597.997px" height="741.644px" viewBox="0 0 597.997 741.644" enable-background="new 0 0 597.997 741.644"
	 xml:space="preserve">
<g>
	<path opacity="0.2" fill-rule="evenodd" clip-rule="evenodd" fill="#1A1A1A" d="M548.993,526.414
		c3.306-0.742,6.726-1.165,10.246-1.233c9.523-0.185,16.038,2.863,19.281,7.141c1.494,1.971,2.302,4.206,2.4,6.522
		c0.098,2.296-0.506,4.649-1.832,6.878c-3.143,5.285-10.412,9.916-22.057,11.291c-2.564,0.303-5.25,0.391-8.039,0.273v-2.663
		c2.686,0.116,5.267,0.034,7.727-0.256c10.726-1.267,17.316-5.36,20.078-10c1.059-1.781,1.542-3.636,1.466-5.419
		c-0.075-1.765-0.704-3.486-1.869-5.023c-2.771-3.655-8.53-6.255-17.113-6.089c-3.538,0.069-6.973,0.518-10.288,1.307V526.414z
		 M496.901,585.079L496.901,585.079l0.01-0.002l0.01-0.003l0.01-0.002l0.011-0.003l0.01-0.002
		c16.349-3.986,34.098,9.664,39.962,31.146c5.864,21.482-2.706,42.806-19.227,47.315c-16.52,4.51-34.819-9.802-40.602-30.982
		c-5.781-21.181,2.029-41.072,17.246-46.678c1.151-12.198,12.91-28.483,21.011-37.189c-1.169-0.493-2.343-1.006-3.522-1.537
		c-16.639-7.496-34.335-18.672-51.148-31.904v166.023c0,3.615-2.961,6.576-6.575,6.576H313.128V491.825h112.787v-3.35H313.128
		V367.423h164.758c8.873,0,13.429,3.822,10.115,16.188l-28.1,104.865h-19.574v3.35h13.771c3.617,0,6.575,2.96,6.575,6.575v13.446
		c17.131,13.666,35.251,25.213,52.242,32.867c1.408,0.635,2.809,1.242,4.2,1.822c7.383-8.606,16.461-15.243,26.802-18.705
		c1.66-0.556,3.354-1.029,5.077-1.417v2.729c-1.434,0.34-2.845,0.744-4.232,1.209c-9.598,3.213-18.074,9.313-25.046,17.239
		c10.527,4.157,20.469,6.651,29.278,7.031v2.663c-9.384-0.39-19.947-3.075-31.091-7.551
		C505.83,564.575,500.359,573.335,496.901,585.079z M313.128,687.837H172.161c-3.615,0-6.575-2.959-6.575-6.576V498.4
		c0-3.617,2.958-6.575,6.575-6.575h13.77v-3.35h-20.345l-26.626-103.25c-3.898-15.123-1.466-17.803,8.622-17.803h165.545v121.053
		H200.342v3.35h112.786V687.837z"/>
	<g>
		<path fill="#FFFFFF" d="M534.308,513.837c3.307-0.742,6.726-1.166,10.246-1.234c9.523-0.185,16.039,2.863,19.282,7.141
			c1.493,1.971,2.301,4.207,2.399,6.523c0.098,2.295-0.506,4.648-1.831,6.877c-3.145,5.284-10.412,9.916-22.057,11.292
			c-2.565,0.304-5.25,0.39-8.04,0.273v-2.664c2.687,0.116,5.268,0.034,7.728-0.256c10.725-1.268,17.316-5.359,20.076-10
			c1.06-1.781,1.543-3.635,1.468-5.419c-0.075-1.764-0.705-3.485-1.869-5.024c-2.772-3.654-8.531-6.254-17.114-6.088
			c-3.538,0.069-6.973,0.518-10.288,1.307V513.837z M443.433,497.208c17.876,14.566,36.958,26.892,54.797,34.928
			c1.408,0.635,2.809,1.242,4.199,1.822c7.384-8.607,16.462-15.244,26.803-18.705c1.66-0.556,3.352-1.029,5.076-1.416v2.728
			c-1.433,0.34-2.845,0.744-4.232,1.209c-9.597,3.213-18.073,9.313-25.046,17.239c10.528,4.157,20.47,6.652,29.278,7.031v2.664
			c-9.383-0.391-19.947-3.076-31.09-7.552c-2.472,3.037-4.734,6.311-6.768,9.768c-8.074,13.719-12.547,30.293-12.232,46.433
			c0.145,7.489,1.325,14.885,3.658,21.853l-2.522,0.844c-2.419-7.226-3.643-14.893-3.794-22.654
			c-0.323-16.621,4.282-33.691,12.598-47.819c1.965-3.337,4.137-6.512,6.5-9.479c-1.169-0.493-2.343-1.006-3.523-1.537
			c-18.04-8.128-37.324-20.582-55.38-35.291L443.433,497.208z"/>
		<path fill-rule="evenodd" clip-rule="evenodd" fill="#CCCCCC" d="M132.897,354.845h330.304c8.872,0,13.429,3.822,10.115,16.189
			l-28.102,104.863H150.901l-26.625-103.249C120.377,357.524,122.809,354.845,132.897,354.845z"/>
		<g>
			
				<ellipse transform="matrix(-0.2634 -0.9647 0.9647 -0.2634 30.3386 1261.39)" fill-rule="evenodd" clip-rule="evenodd" fill="#CCCCCC" cx="496.767" cy="619.112" rx="40.582" ry="31.008"/>
			
				<ellipse transform="matrix(-0.2634 -0.9647 0.9647 -0.2634 33.1128 1254.5601)" fill-rule="evenodd" clip-rule="evenodd" fill="#FFFFFF" cx="495.545" cy="614.638" rx="33.606" ry="25.679"/>
			<path fill-rule="evenodd" clip-rule="evenodd" fill="#B3B3B3" d="M486.079,579.963c0.213-0.058,0.426-0.111,0.64-0.163
				l5.579,20.439l-1.272,0.347l-5.58-20.438C485.655,580.083,485.866,580.021,486.079,579.963z"/>
			<path fill-rule="evenodd" clip-rule="evenodd" fill="#B3B3B3" d="M485.2,585.876l4.641-1.268
				c1.042-0.285,2.129,0.336,2.413,1.379l5.761,21.103c0.285,1.042-0.335,2.129-1.378,2.413l-4.641,1.267
				c-1.042,0.285-2.128-0.336-2.413-1.378l-5.762-21.104C483.537,587.246,484.157,586.16,485.2,585.876z"/>
			<path fill-rule="evenodd" clip-rule="evenodd" fill="#FFFFFF" d="M486.648,587.076l2.555-0.697
				c0.574-0.157,1.171,0.185,1.328,0.759l5.415,19.837c0.157,0.574-0.185,1.171-0.758,1.328l-2.555,0.698
				c-0.574,0.156-1.172-0.185-1.328-0.76l-5.416-19.836C485.733,587.831,486.074,587.233,486.648,587.076z"/>
		</g>
	</g>
	<path fill-rule="evenodd" clip-rule="evenodd" fill="#FFFFFF" d="M130.968,357.395h335.217c2.15,0,3.909,1.759,3.909,3.909l0,0
		c0,2.15-1.759,3.909-3.909,3.909H130.968c-2.149,0-3.909-1.759-3.909-3.909l0,0C127.059,359.154,128.819,357.395,130.968,357.395z"
		/>
	
		<line fill-rule="evenodd" clip-rule="evenodd" fill="none" stroke="#FFFFFF" stroke-width="2.88" stroke-miterlimit="22.9256" stroke-dasharray="2.88,8.64" x1="555.039" y1="336.427" x2="555.039" y2="217.506"/>
	<g>
		
			<line fill-rule="evenodd" clip-rule="evenodd" fill="none" stroke="#FFFFFF" stroke-width="2.88" stroke-miterlimit="22.9256" stroke-dasharray="2.88,8.64" x1="300.301" y1="70.327" x2="300.301" y2="371.498"/>
		
			<line fill-rule="evenodd" clip-rule="evenodd" fill="none" stroke="#FFFFFF" stroke-width="2.88" stroke-miterlimit="22.9256" stroke-dasharray="2.88,8.64" x1="45.929" y1="336.427" x2="45.929" y2="177.112"/>
		
			<line fill-rule="evenodd" clip-rule="evenodd" fill="none" stroke="#FFFFFF" stroke-width="2.88" stroke-miterlimit="22.9256" stroke-dasharray="2.88,8.64" x1="45.928" y1="150.531" x2="300.301" y2="84.808"/>
		
			<line fill-rule="evenodd" clip-rule="evenodd" fill="none" stroke="#FFFFFF" stroke-width="2.88" stroke-miterlimit="22.9256" stroke-dasharray="2.88,8.64" x1="555.038" y1="183.41" x2="300.301" y2="84.808"/>
		
			<line fill-rule="evenodd" clip-rule="evenodd" fill="none" stroke="#FFFFFF" stroke-width="2.88" stroke-miterlimit="22.9256" stroke-dasharray="2.88,8.64" x1="555.039" y1="336.427" x2="45.563" y2="336.427"/>
	</g>
	<path opacity="0.2" fill-rule="evenodd" clip-rule="evenodd" fill="#1A1A1A" d="M371.854,55.254c-1.318,0-2.609,0.093-3.875,0.272
		c-5.225,0.736-9.979,2.938-13.834,6.178c-0.054-2.543-0.309-5.037-0.741-7.467c-0.318-1.789-0.743-3.537-1.256-5.247
		c-4.225-14.163-14.847-25.559-28.515-30.843c-1.572-0.604-3.184-1.136-4.832-1.576c-3.936-1.052-8.07-1.624-12.343-1.624
		c-0.661,0-1.318,0.025-1.977,0.052c-25.429,1.034-45.732,21.971-45.732,47.655c0,4.874,0.737,9.575,2.096,14.003
		c-9.14,0.204-16.489,7.659-16.489,16.845c0,9.313,7.549,16.86,16.864,16.86h45.238h2.055h63.341
		c15.216,0,27.552-12.335,27.552-27.553C399.406,67.592,387.07,55.254,371.854,55.254z"/>
	<path fill="#D4EBFF" d="M354.189,40.306c-1.318,0-2.609,0.094-3.875,0.273c-5.225,0.736-9.979,2.938-13.834,6.178
		c-0.054-2.543-0.309-5.037-0.74-7.467c-0.319-1.789-0.744-3.537-1.257-5.248C330.259,19.88,319.637,8.484,305.969,3.2
		c-1.572-0.604-3.183-1.137-4.832-1.576C297.2,0.572,293.067,0,288.794,0c-0.662,0-1.318,0.025-1.977,0.052
		c-25.43,1.033-45.732,21.971-45.732,47.655c0,4.874,0.736,9.575,2.096,14.003c-9.141,0.203-16.489,7.659-16.489,16.845
		c0,9.313,7.549,16.86,16.864,16.86h45.238h2.055h63.34c15.216,0,27.552-12.336,27.552-27.553
		C381.741,52.643,369.405,40.306,354.189,40.306z"/>
	<g>
		<path fill-rule="evenodd" clip-rule="evenodd" fill="#FFFFFF" d="M157.476,479.247h281.935c3.617,0,6.576,2.961,6.576,6.576
			v182.859c0,3.615-2.961,6.576-6.576,6.576H157.476c-3.615,0-6.575-2.959-6.575-6.576V485.823
			C150.901,482.206,153.859,479.247,157.476,479.247z"/>
		<path fill-rule="evenodd" clip-rule="evenodd" fill="#B3B3B3" d="M170.279,479.247h16.345v9.336c0,0.845-0.69,1.536-1.535,1.536
			h-13.274c-0.845,0-1.535-0.691-1.535-1.536V479.247z"/>
		<path fill-rule="evenodd" clip-rule="evenodd" fill="#B3B3B3" d="M410.263,479.247h16.346v9.336c0,0.845-0.691,1.536-1.535,1.536
			h-13.274c-0.846,0-1.536-0.691-1.536-1.536V479.247z"/>
		<polygon fill-rule="evenodd" clip-rule="evenodd" fill="#1E4B73" points="456.123,381.659 435.686,461.78 160.663,461.78 
			140.016,381.659 		"/>
		<path fill-rule="evenodd" clip-rule="evenodd" fill="#FFFFFF" d="M172.6,470.776h11.703c0.745,0,1.354,0.608,1.354,1.354v13.83
			c0,0.746-0.609,1.354-1.354,1.354H172.6c-0.745,0-1.355-0.608-1.355-1.354v-13.83C171.246,471.385,171.855,470.776,172.6,470.776z
			"/>
		<path fill-rule="evenodd" clip-rule="evenodd" fill="#FFFFFF" d="M412.585,470.776h11.702c0.745,0,1.355,0.608,1.355,1.354v13.83
			c0,0.746-0.609,1.354-1.355,1.354h-11.702c-0.746,0-1.355-0.608-1.355-1.354v-13.83
			C411.23,471.385,411.839,470.776,412.585,470.776z"/>
		<g>
			<path fill-rule="evenodd" clip-rule="evenodd" fill="#CCCCCC" d="M417.272,505.37h9.105c1.034,0,1.881,0.846,1.881,1.881v6.768
				c0,1.033-0.847,1.881-1.881,1.881h-9.105c-1.035,0-1.882-0.848-1.882-1.881v-6.768
				C415.391,506.216,416.237,505.37,417.272,505.37z"/>
			<path fill-rule="evenodd" clip-rule="evenodd" fill="#CCCCCC" d="M417.689,518.279h8.271c1.265,0,2.299,1.034,2.299,2.299v9.165
				c0,1.266-1.034,2.299-2.299,2.299h-8.271c-1.265,0-2.299-1.033-2.299-2.299v-9.165
				C415.391,519.313,416.425,518.279,417.689,518.279z"/>
			<path fill-rule="evenodd" clip-rule="evenodd" fill="#CCCCCC" d="M417.689,534.423h8.271c1.265,0,2.299,1.033,2.299,2.298v9.166
				c0,1.265-1.034,2.298-2.299,2.298h-8.271c-1.265,0-2.299-1.033-2.299-2.298v-9.166
				C415.391,535.456,416.425,534.423,417.689,534.423z"/>
			<path fill-rule="evenodd" clip-rule="evenodd" fill="#CCCCCC" d="M417.689,550.565h8.271c1.265,0,2.299,1.035,2.299,2.299v9.166
				c0,1.265-1.034,2.299-2.299,2.299h-8.271c-1.265,0-2.299-1.034-2.299-2.299v-9.166
				C415.391,551.601,416.425,550.565,417.689,550.565z"/>
			<path fill-rule="evenodd" clip-rule="evenodd" fill="#CCCCCC" d="M417.689,566.708h8.271c1.265,0,2.299,1.035,2.299,2.299v9.166
				c0,1.265-1.034,2.299-2.299,2.299h-8.271c-1.265,0-2.299-1.034-2.299-2.299v-9.166
				C415.391,567.743,416.425,566.708,417.689,566.708z"/>
			<path fill-rule="evenodd" clip-rule="evenodd" fill="#CCCCCC" d="M417.689,582.851h8.271c1.265,0,2.299,1.035,2.299,2.299v9.166
				c0,1.265-1.034,2.299-2.299,2.299h-8.271c-1.265,0-2.299-1.034-2.299-2.299v-9.166
				C415.391,583.886,416.425,582.851,417.689,582.851z"/>
			<path fill-rule="evenodd" clip-rule="evenodd" fill="#CCCCCC" d="M401.188,505.37h9.105c1.035,0,1.882,0.846,1.882,1.881v6.768
				c0,1.033-0.847,1.881-1.882,1.881h-9.105c-1.034,0-1.881-0.848-1.881-1.881v-6.768
				C399.307,506.216,400.153,505.37,401.188,505.37z"/>
			<path fill-rule="evenodd" clip-rule="evenodd" fill="#CCCCCC" d="M386.908,518.279h22.808c1.352,0,2.459,1.106,2.459,2.459v8.845
				c0,1.353-1.108,2.459-2.459,2.459h-22.808c-1.352,0-2.458-1.106-2.458-2.459v-8.845
				C384.45,519.386,385.557,518.279,386.908,518.279z"/>
			<path fill-rule="evenodd" clip-rule="evenodd" fill="#CCCCCC" d="M397.378,534.423h12.338c1.352,0,2.459,1.105,2.459,2.459v8.845
				c0,1.353-1.108,2.458-2.459,2.458h-12.338c-1.352,0-2.459-1.105-2.459-2.458v-8.845
				C394.919,535.528,396.026,534.423,397.378,534.423z"/>
			<path fill-rule="evenodd" clip-rule="evenodd" fill="#CCCCCC" d="M385.095,550.565h24.621c1.353,0,2.459,1.107,2.459,2.459v8.846
				c0,1.352-1.107,2.459-2.459,2.459h-24.621c-1.353,0-2.458-1.108-2.458-2.459v-8.846
				C382.637,551.673,383.742,550.565,385.095,550.565z"/>
			<path fill-rule="evenodd" clip-rule="evenodd" fill="#CCCCCC" d="M401.605,566.708h8.271c1.265,0,2.299,1.035,2.299,2.299v9.166
				c0,1.265-1.034,2.299-2.299,2.299h-8.271c-1.265,0-2.299-1.034-2.299-2.299v-9.166
				C399.307,567.743,400.341,566.708,401.605,566.708z"/>
			<path fill-rule="evenodd" clip-rule="evenodd" fill="#CCCCCC" d="M401.605,582.851h8.271c1.265,0,2.299,1.035,2.299,2.299v9.166
				c0,1.265-1.034,2.299-2.299,2.299h-8.271c-1.265,0-2.299-1.034-2.299-2.299v-9.166
				C399.307,583.886,400.341,582.851,401.605,582.851z"/>
			<path fill-rule="evenodd" clip-rule="evenodd" fill="#CCCCCC" d="M386.331,505.37h7.878c1.034,0,1.881,0.846,1.881,1.881v6.768
				c0,1.033-0.847,1.881-1.881,1.881h-7.878c-1.034,0-1.881-0.848-1.881-1.881v-6.768C384.45,506.216,385.297,505.37,386.331,505.37
				z"/>
			<path fill-rule="evenodd" clip-rule="evenodd" fill="#CCCCCC" d="M371.232,505.37h7.877c1.034,0,1.881,0.846,1.881,1.881v6.768
				c0,1.033-0.847,1.881-1.881,1.881h-7.877c-1.035,0-1.882-0.848-1.882-1.881v-6.768
				C369.351,506.216,370.197,505.37,371.232,505.37z"/>
			<path fill-rule="evenodd" clip-rule="evenodd" fill="#CCCCCC" d="M356.133,505.37h7.877c1.035,0,1.881,0.846,1.881,1.881v6.768
				c0,1.033-0.846,1.881-1.881,1.881h-7.877c-1.035,0-1.882-0.848-1.882-1.881v-6.768
				C354.251,506.216,355.098,505.37,356.133,505.37z"/>
			<path fill-rule="evenodd" clip-rule="evenodd" fill="#CCCCCC" d="M341.033,505.37h7.877c1.035,0,1.881,0.846,1.881,1.881v6.768
				c0,1.033-0.846,1.881-1.881,1.881h-7.877c-1.035,0-1.882-0.848-1.882-1.881v-6.768
				C339.151,506.216,339.998,505.37,341.033,505.37z"/>
			<path fill-rule="evenodd" clip-rule="evenodd" fill="#CCCCCC" d="M325.934,505.37h7.877c1.035,0,1.882,0.846,1.882,1.881v6.768
				c0,1.033-0.847,1.881-1.882,1.881h-7.877c-1.035,0-1.882-0.848-1.882-1.881v-6.768
				C324.052,506.216,324.898,505.37,325.934,505.37z"/>
			<path fill-rule="evenodd" clip-rule="evenodd" fill="#CCCCCC" d="M310.834,505.37h7.877c1.035,0,1.882,0.846,1.882,1.881v6.768
				c0,1.033-0.847,1.881-1.882,1.881h-7.877c-1.034,0-1.881-0.848-1.881-1.881v-6.768C308.953,506.216,309.8,505.37,310.834,505.37z
				"/>
			<path fill-rule="evenodd" clip-rule="evenodd" fill="#CCCCCC" d="M295.734,505.37h7.878c1.035,0,1.881,0.846,1.881,1.881v6.768
				c0,1.033-0.847,1.881-1.881,1.881h-7.878c-1.035,0-1.881-0.848-1.881-1.881v-6.768C293.853,506.216,294.7,505.37,295.734,505.37z
				"/>
			<path fill-rule="evenodd" clip-rule="evenodd" fill="#CCCCCC" d="M280.635,505.37h7.877c1.035,0,1.881,0.846,1.881,1.881v6.768
				c0,1.033-0.847,1.881-1.881,1.881h-7.877c-1.035,0-1.881-0.848-1.881-1.881v-6.768C278.754,506.216,279.6,505.37,280.635,505.37z
				"/>
			<path fill-rule="evenodd" clip-rule="evenodd" fill="#CCCCCC" d="M265.536,505.37h7.877c1.035,0,1.881,0.846,1.881,1.881v6.768
				c0,1.033-0.846,1.881-1.881,1.881h-7.877c-1.035,0-1.881-0.848-1.881-1.881v-6.768
				C263.654,506.216,264.501,505.37,265.536,505.37z"/>
			<path fill-rule="evenodd" clip-rule="evenodd" fill="#CCCCCC" d="M250.436,505.37h7.877c1.035,0,1.881,0.846,1.881,1.881v6.768
				c0,1.033-0.846,1.881-1.881,1.881h-7.877c-1.035,0-1.881-0.848-1.881-1.881v-6.768
				C248.555,506.216,249.401,505.37,250.436,505.37z"/>
			<path fill-rule="evenodd" clip-rule="evenodd" fill="#CCCCCC" d="M235.336,505.37h7.877c1.035,0,1.881,0.846,1.881,1.881v6.768
				c0,1.033-0.846,1.881-1.881,1.881h-7.877c-1.034,0-1.881-0.848-1.881-1.881v-6.768
				C233.455,506.216,234.302,505.37,235.336,505.37z"/>
			<path fill-rule="evenodd" clip-rule="evenodd" fill="#CCCCCC" d="M220.237,505.37h7.878c1.034,0,1.881,0.846,1.881,1.881v6.768
				c0,1.033-0.847,1.881-1.881,1.881h-7.878c-1.034,0-1.881-0.848-1.881-1.881v-6.768
				C218.356,506.216,219.203,505.37,220.237,505.37z"/>
			<path fill-rule="evenodd" clip-rule="evenodd" fill="#CCCCCC" d="M205.138,505.37h7.877c1.035,0,1.881,0.846,1.881,1.881v6.768
				c0,1.033-0.846,1.881-1.881,1.881h-7.877c-1.035,0-1.881-0.848-1.881-1.881v-6.768
				C203.257,506.216,204.103,505.37,205.138,505.37z"/>
			<path fill-rule="evenodd" clip-rule="evenodd" fill="#CCCCCC" d="M190.038,505.37h7.877c1.035,0,1.881,0.846,1.881,1.881v6.768
				c0,1.033-0.847,1.881-1.881,1.881h-7.877c-1.035,0-1.881-0.848-1.881-1.881v-6.768
				C188.157,506.216,189.003,505.37,190.038,505.37z"/>
			<path fill-rule="evenodd" clip-rule="evenodd" fill="#CCCCCC" d="M173.076,505.37h9.106c1.034,0,1.88,0.846,1.88,1.881v6.768
				c0,1.033-0.846,1.881-1.88,1.881h-9.106c-1.035,0-1.881-0.848-1.881-1.881v-6.768C171.195,506.216,172.041,505.37,173.076,505.37
				z"/>
			<path fill-rule="evenodd" clip-rule="evenodd" fill="#CCCCCC" d="M370.617,518.279h8.117c1.24,0,2.256,1.016,2.256,2.257v9.25
				c0,1.241-1.016,2.256-2.256,2.256h-8.117c-1.241,0-2.256-1.015-2.256-2.256v-9.25
				C368.361,519.295,369.376,518.279,370.617,518.279z"/>
			<path fill-rule="evenodd" clip-rule="evenodd" fill="#CCCCCC" d="M354.235,518.279h8.116c1.241,0,2.256,1.016,2.256,2.257v9.25
				c0,1.241-1.015,2.256-2.256,2.256h-8.116c-1.241,0-2.256-1.015-2.256-2.256v-9.25
				C351.979,519.295,352.994,518.279,354.235,518.279z"/>
			<path fill-rule="evenodd" clip-rule="evenodd" fill="#CCCCCC" d="M337.852,518.279h8.117c1.241,0,2.256,1.016,2.256,2.257v9.25
				c0,1.241-1.015,2.256-2.256,2.256h-8.117c-1.24,0-2.255-1.015-2.255-2.256v-9.25
				C335.598,519.295,336.612,518.279,337.852,518.279z"/>
			<path fill-rule="evenodd" clip-rule="evenodd" fill="#CCCCCC" d="M321.471,518.279h8.116c1.241,0,2.257,1.016,2.257,2.257v9.25
				c0,1.241-1.016,2.256-2.257,2.256h-8.116c-1.241,0-2.256-1.015-2.256-2.256v-9.25
				C319.215,519.295,320.229,518.279,321.471,518.279z"/>
			<path fill-rule="evenodd" clip-rule="evenodd" fill="#CCCCCC" d="M305.089,518.279h8.116c1.241,0,2.256,1.016,2.256,2.257v9.25
				c0,1.241-1.015,2.256-2.256,2.256h-8.116c-1.241,0-2.256-1.015-2.256-2.256v-9.25
				C302.832,519.295,303.848,518.279,305.089,518.279z"/>
			<path fill-rule="evenodd" clip-rule="evenodd" fill="#CCCCCC" d="M288.706,518.279h8.116c1.241,0,2.256,1.016,2.256,2.257v9.25
				c0,1.241-1.015,2.256-2.256,2.256h-8.116c-1.241,0-2.256-1.015-2.256-2.256v-9.25
				C286.45,519.295,287.465,518.279,288.706,518.279z"/>
			<path fill-rule="evenodd" clip-rule="evenodd" fill="#CCCCCC" d="M272.324,518.279h8.116c1.241,0,2.256,1.016,2.256,2.257v9.25
				c0,1.241-1.015,2.256-2.256,2.256h-8.116c-1.241,0-2.256-1.015-2.256-2.256v-9.25
				C270.068,519.295,271.083,518.279,272.324,518.279z"/>
			<path fill-rule="evenodd" clip-rule="evenodd" fill="#CCCCCC" d="M255.942,518.279h8.117c1.241,0,2.256,1.016,2.256,2.257v9.25
				c0,1.241-1.015,2.256-2.256,2.256h-8.117c-1.241,0-2.256-1.015-2.256-2.256v-9.25
				C253.686,519.295,254.701,518.279,255.942,518.279z"/>
			<path fill-rule="evenodd" clip-rule="evenodd" fill="#CCCCCC" d="M239.559,518.279h8.117c1.241,0,2.256,1.016,2.256,2.257v9.25
				c0,1.241-1.015,2.256-2.256,2.256h-8.117c-1.241,0-2.256-1.015-2.256-2.256v-9.25
				C237.304,519.295,238.319,518.279,239.559,518.279z"/>
			<path fill-rule="evenodd" clip-rule="evenodd" fill="#CCCCCC" d="M223.177,518.279h8.117c1.241,0,2.256,1.016,2.256,2.257v9.25
				c0,1.241-1.015,2.256-2.256,2.256h-8.117c-1.241,0-2.255-1.015-2.255-2.256v-9.25
				C220.922,519.295,221.936,518.279,223.177,518.279z"/>
			<path fill-rule="evenodd" clip-rule="evenodd" fill="#CCCCCC" d="M206.795,518.279h8.117c1.241,0,2.256,1.016,2.256,2.257v9.25
				c0,1.241-1.015,2.256-2.256,2.256h-8.117c-1.241,0-2.255-1.015-2.255-2.256v-9.25
				C204.539,519.295,205.554,518.279,206.795,518.279z"/>
			<path fill-rule="evenodd" clip-rule="evenodd" fill="#CCCCCC" d="M190.413,518.279h8.116c1.241,0,2.256,1.016,2.256,2.257v9.25
				c0,1.241-1.015,2.256-2.256,2.256h-8.116c-1.241,0-2.256-1.015-2.256-2.256v-9.25
				C188.157,519.295,189.172,518.279,190.413,518.279z"/>
			<path fill-rule="evenodd" clip-rule="evenodd" fill="#CCCCCC" d="M173.494,518.279h8.271c1.265,0,2.298,1.034,2.298,2.299v9.166
				c0,1.265-1.034,2.298-2.298,2.298h-8.271c-1.265,0-2.298-1.033-2.298-2.298v-9.166
				C171.195,519.313,172.229,518.279,173.494,518.279z"/>
			<path fill-rule="evenodd" clip-rule="evenodd" fill="#CCCCCC" d="M173.654,534.423h17.016c1.352,0,2.458,1.107,2.458,2.459v8.845
				c0,1.353-1.106,2.459-2.458,2.459h-17.016c-1.353,0-2.459-1.106-2.459-2.459v-8.845
				C171.195,535.529,172.301,534.423,173.654,534.423z"/>
			<path fill-rule="evenodd" clip-rule="evenodd" fill="#CCCCCC" d="M173.654,550.565h20.232c1.352,0,2.459,1.107,2.459,2.459v8.846
				c0,1.352-1.107,2.459-2.459,2.459h-20.232c-1.352,0-2.458-1.108-2.458-2.459v-8.846
				C171.195,551.673,172.302,550.565,173.654,550.565z"/>
			<path fill-rule="evenodd" clip-rule="evenodd" fill="#CCCCCC" d="M173.654,566.709h29.006c1.353,0,2.459,1.106,2.459,2.458v8.846
				c0,1.352-1.106,2.459-2.459,2.459h-29.006c-1.353,0-2.458-1.106-2.458-2.459v-8.846
				C171.195,567.815,172.301,566.709,173.654,566.709z"/>
			<path fill-rule="evenodd" clip-rule="evenodd" fill="#CCCCCC" d="M173.654,582.852h12.044c1.352,0,2.459,1.107,2.459,2.458v8.846
				c0,1.353-1.107,2.459-2.459,2.459h-12.044c-1.353,0-2.458-1.106-2.458-2.459v-8.846
				C171.195,583.958,172.301,582.852,173.654,582.852z"/>
			<path fill-rule="evenodd" clip-rule="evenodd" fill="#CCCCCC" d="M197.592,534.423h8.692c1.329,0,2.416,1.086,2.416,2.416v8.93
				c0,1.33-1.087,2.417-2.416,2.417h-8.692c-1.33,0-2.416-1.087-2.416-2.417v-8.93C195.176,535.509,196.262,534.423,197.592,534.423
				z"/>
			<path fill-rule="evenodd" clip-rule="evenodd" fill="#CCCCCC" d="M214.281,534.423h8.693c1.329,0,2.416,1.086,2.416,2.416v8.93
				c0,1.33-1.087,2.417-2.416,2.417h-8.693c-1.329,0-2.416-1.087-2.416-2.417v-8.93
				C211.865,535.509,212.952,534.423,214.281,534.423z"/>
			<path fill-rule="evenodd" clip-rule="evenodd" fill="#CCCCCC" d="M230.971,534.423h8.692c1.33,0,2.416,1.086,2.416,2.416v8.93
				c0,1.33-1.087,2.417-2.416,2.417h-8.692c-1.33,0-2.416-1.087-2.416-2.417v-8.93C228.555,535.509,229.642,534.423,230.971,534.423
				z"/>
			<path fill-rule="evenodd" clip-rule="evenodd" fill="#CCCCCC" d="M247.661,534.423h8.692c1.33,0,2.417,1.086,2.417,2.416v8.93
				c0,1.33-1.087,2.417-2.417,2.417h-8.692c-1.329,0-2.416-1.087-2.416-2.417v-8.93
				C245.245,535.509,246.331,534.423,247.661,534.423z"/>
			<path fill-rule="evenodd" clip-rule="evenodd" fill="#CCCCCC" d="M264.351,534.423h8.692c1.329,0,2.417,1.086,2.417,2.416v8.93
				c0,1.33-1.087,2.417-2.417,2.417h-8.692c-1.329,0-2.416-1.087-2.416-2.417v-8.93
				C261.934,535.509,263.021,534.423,264.351,534.423z"/>
			<path fill-rule="evenodd" clip-rule="evenodd" fill="#CCCCCC" d="M281.04,534.423h8.692c1.329,0,2.416,1.086,2.416,2.416v8.93
				c0,1.33-1.087,2.417-2.416,2.417h-8.692c-1.33,0-2.417-1.087-2.417-2.417v-8.93C278.624,535.509,279.711,534.423,281.04,534.423z
				"/>
			<path fill-rule="evenodd" clip-rule="evenodd" fill="#CCCCCC" d="M297.73,534.423h8.693c1.329,0,2.416,1.086,2.416,2.416v8.93
				c0,1.33-1.087,2.417-2.416,2.417h-8.693c-1.329,0-2.416-1.087-2.416-2.417v-8.93C295.314,535.509,296.401,534.423,297.73,534.423
				z"/>
			<path fill-rule="evenodd" clip-rule="evenodd" fill="#CCCCCC" d="M314.42,534.423h8.692c1.329,0,2.416,1.086,2.416,2.416v8.93
				c0,1.33-1.087,2.417-2.416,2.417h-8.692c-1.329,0-2.416-1.087-2.416-2.417v-8.93C312.004,535.509,313.091,534.423,314.42,534.423
				z"/>
			<path fill-rule="evenodd" clip-rule="evenodd" fill="#CCCCCC" d="M331.109,534.423h8.692c1.329,0,2.416,1.086,2.416,2.416v8.93
				c0,1.33-1.087,2.417-2.416,2.417h-8.692c-1.329,0-2.416-1.087-2.416-2.417v-8.93C328.693,535.509,329.78,534.423,331.109,534.423
				z"/>
			<path fill-rule="evenodd" clip-rule="evenodd" fill="#CCCCCC" d="M347.799,534.423h8.692c1.33,0,2.417,1.086,2.417,2.416v8.93
				c0,1.33-1.087,2.417-2.417,2.417h-8.692c-1.329,0-2.416-1.087-2.416-2.417v-8.93C345.383,535.509,346.47,534.423,347.799,534.423
				z"/>
			<path fill-rule="evenodd" clip-rule="evenodd" fill="#CCCCCC" d="M364.489,534.423h8.692c1.329,0,2.416,1.086,2.416,2.416v8.93
				c0,1.33-1.087,2.417-2.416,2.417h-8.692c-1.329,0-2.416-1.087-2.416-2.417v-8.93C362.073,535.509,363.16,534.423,364.489,534.423
				z"/>
			<path fill-rule="evenodd" clip-rule="evenodd" fill="#CCCCCC" d="M381.179,534.423h8.692c1.329,0,2.416,1.086,2.416,2.416v8.93
				c0,1.33-1.087,2.417-2.416,2.417h-8.692c-1.329,0-2.416-1.087-2.416-2.417v-8.93C378.763,535.509,379.85,534.423,381.179,534.423
				z"/>
			<path fill-rule="evenodd" clip-rule="evenodd" fill="#CCCCCC" d="M202.235,550.565h8.692c1.329,0,2.416,1.088,2.416,2.416v8.932
				c0,1.329-1.087,2.416-2.416,2.416h-8.692c-1.33,0-2.417-1.087-2.417-2.416v-8.932
				C199.818,551.653,200.905,550.565,202.235,550.565z"/>
			<path fill-rule="evenodd" clip-rule="evenodd" fill="#CCCCCC" d="M218.924,550.565h8.692c1.33,0,2.416,1.088,2.416,2.416v8.932
				c0,1.329-1.087,2.416-2.416,2.416h-8.692c-1.329,0-2.416-1.087-2.416-2.416v-8.932
				C216.508,551.653,217.595,550.565,218.924,550.565z"/>
			<path fill-rule="evenodd" clip-rule="evenodd" fill="#CCCCCC" d="M235.614,550.565h8.692c1.329,0,2.416,1.088,2.416,2.416v8.932
				c0,1.329-1.087,2.416-2.416,2.416h-8.692c-1.329,0-2.417-1.087-2.417-2.416v-8.932
				C233.198,551.653,234.285,550.565,235.614,550.565z"/>
			<path fill-rule="evenodd" clip-rule="evenodd" fill="#CCCCCC" d="M252.304,550.565h8.693c1.329,0,2.416,1.088,2.416,2.416v8.932
				c0,1.329-1.087,2.416-2.416,2.416h-8.693c-1.329,0-2.416-1.087-2.416-2.416v-8.932
				C249.888,551.653,250.975,550.565,252.304,550.565z"/>
			<path fill-rule="evenodd" clip-rule="evenodd" fill="#CCCCCC" d="M268.994,550.565h8.692c1.33,0,2.416,1.088,2.416,2.416v8.932
				c0,1.329-1.086,2.416-2.416,2.416h-8.692c-1.329,0-2.416-1.087-2.416-2.416v-8.932
				C266.578,551.653,267.664,550.565,268.994,550.565z"/>
			<path fill-rule="evenodd" clip-rule="evenodd" fill="#CCCCCC" d="M285.683,550.565h8.693c1.329,0,2.416,1.088,2.416,2.416v8.932
				c0,1.329-1.087,2.416-2.416,2.416h-8.693c-1.329,0-2.416-1.087-2.416-2.416v-8.932
				C283.267,551.653,284.354,550.565,285.683,550.565z"/>
			<path fill-rule="evenodd" clip-rule="evenodd" fill="#CCCCCC" d="M302.373,550.565h8.692c1.329,0,2.416,1.088,2.416,2.416v8.932
				c0,1.329-1.087,2.416-2.416,2.416h-8.692c-1.329,0-2.416-1.087-2.416-2.416v-8.932
				C299.957,551.653,301.044,550.565,302.373,550.565z"/>
			<path fill-rule="evenodd" clip-rule="evenodd" fill="#CCCCCC" d="M319.063,550.565h8.692c1.33,0,2.417,1.088,2.417,2.416v8.932
				c0,1.329-1.087,2.416-2.417,2.416h-8.692c-1.329,0-2.416-1.087-2.416-2.416v-8.932
				C316.646,551.653,317.733,550.565,319.063,550.565z"/>
			<path fill-rule="evenodd" clip-rule="evenodd" fill="#CCCCCC" d="M335.753,550.565h8.692c1.329,0,2.416,1.088,2.416,2.416v8.932
				c0,1.329-1.087,2.416-2.416,2.416h-8.692c-1.329,0-2.417-1.087-2.417-2.416v-8.932
				C333.336,551.653,334.424,550.565,335.753,550.565z"/>
			<path fill-rule="evenodd" clip-rule="evenodd" fill="#CCCCCC" d="M352.442,550.565h8.692c1.329,0,2.416,1.088,2.416,2.416v8.932
				c0,1.329-1.087,2.416-2.416,2.416h-8.692c-1.329,0-2.416-1.087-2.416-2.416v-8.932
				C350.026,551.653,351.113,550.565,352.442,550.565z"/>
			<path fill-rule="evenodd" clip-rule="evenodd" fill="#CCCCCC" d="M369.132,550.565h8.692c1.33,0,2.416,1.088,2.416,2.416v8.932
				c0,1.329-1.086,2.416-2.416,2.416h-8.692c-1.329,0-2.416-1.087-2.416-2.416v-8.932
				C366.716,551.653,367.803,550.565,369.132,550.565z"/>
			<path fill-rule="evenodd" clip-rule="evenodd" fill="#CCCCCC" d="M210.973,566.709h8.692c1.329,0,2.416,1.087,2.416,2.416v8.931
				c0,1.329-1.087,2.416-2.416,2.416h-8.692c-1.329,0-2.417-1.087-2.417-2.416v-8.931
				C208.556,567.796,209.643,566.709,210.973,566.709z"/>
			<path fill-rule="evenodd" clip-rule="evenodd" fill="#CCCCCC" d="M227.663,566.709h8.692c1.329,0,2.416,1.087,2.416,2.416v8.931
				c0,1.329-1.087,2.416-2.416,2.416h-8.692c-1.33,0-2.417-1.087-2.417-2.416v-8.931
				C225.246,567.796,226.333,566.709,227.663,566.709z"/>
			<path fill-rule="evenodd" clip-rule="evenodd" fill="#CCCCCC" d="M244.352,566.709h8.692c1.33,0,2.416,1.087,2.416,2.416v8.931
				c0,1.329-1.086,2.416-2.416,2.416h-8.692c-1.329,0-2.416-1.087-2.416-2.416v-8.931
				C241.936,567.796,243.023,566.709,244.352,566.709z"/>
			<path fill-rule="evenodd" clip-rule="evenodd" fill="#CCCCCC" d="M261.042,566.709h8.693c1.329,0,2.416,1.087,2.416,2.416v8.931
				c0,1.329-1.087,2.416-2.416,2.416h-8.693c-1.329,0-2.416-1.087-2.416-2.416v-8.931
				C258.625,567.796,259.712,566.709,261.042,566.709z"/>
			<path fill-rule="evenodd" clip-rule="evenodd" fill="#CCCCCC" d="M277.731,566.709h8.692c1.33,0,2.416,1.087,2.416,2.416v8.931
				c0,1.329-1.086,2.416-2.416,2.416h-8.692c-1.329,0-2.416-1.087-2.416-2.416v-8.931
				C275.315,567.796,276.402,566.709,277.731,566.709z"/>
			<path fill-rule="evenodd" clip-rule="evenodd" fill="#CCCCCC" d="M294.421,566.709h8.693c1.329,0,2.417,1.087,2.417,2.416v8.931
				c0,1.329-1.087,2.416-2.417,2.416h-8.693c-1.329,0-2.416-1.087-2.416-2.416v-8.931
				C292.005,567.796,293.092,566.709,294.421,566.709z"/>
			<path fill-rule="evenodd" clip-rule="evenodd" fill="#CCCCCC" d="M311.111,566.709h8.692c1.329,0,2.416,1.087,2.416,2.416v8.931
				c0,1.329-1.087,2.416-2.416,2.416h-8.692c-1.329,0-2.417-1.087-2.417-2.416v-8.931
				C308.694,567.796,309.782,566.709,311.111,566.709z"/>
			<path fill-rule="evenodd" clip-rule="evenodd" fill="#CCCCCC" d="M327.801,566.709h8.692c1.329,0,2.416,1.087,2.416,2.416v8.931
				c0,1.329-1.087,2.416-2.416,2.416h-8.692c-1.329,0-2.416-1.087-2.416-2.416v-8.931
				C325.385,567.796,326.472,566.709,327.801,566.709z"/>
			<path fill-rule="evenodd" clip-rule="evenodd" fill="#CCCCCC" d="M344.49,566.709h8.692c1.33,0,2.416,1.087,2.416,2.416v8.931
				c0,1.329-1.086,2.416-2.416,2.416h-8.692c-1.329,0-2.416-1.087-2.416-2.416v-8.931
				C342.074,567.796,343.161,566.709,344.49,566.709z"/>
			<path fill-rule="evenodd" clip-rule="evenodd" fill="#CCCCCC" d="M361.18,566.709h8.693c1.329,0,2.416,1.087,2.416,2.416v8.931
				c0,1.329-1.087,2.416-2.416,2.416h-8.693c-1.329,0-2.416-1.087-2.416-2.416v-8.931
				C358.764,567.796,359.851,566.709,361.18,566.709z"/>
			<path fill-rule="evenodd" clip-rule="evenodd" fill="#CCCCCC" d="M377.912,566.709h15.718c1.353,0,2.459,1.106,2.459,2.458v8.846
				c0,1.352-1.106,2.459-2.459,2.459h-15.718c-1.352,0-2.458-1.106-2.458-2.459v-8.846
				C375.454,567.815,376.56,566.709,377.912,566.709z"/>
			<path fill-rule="evenodd" clip-rule="evenodd" fill="#CCCCCC" d="M194.011,582.852h8.692c1.329,0,2.416,1.087,2.416,2.416v8.931
				c0,1.329-1.087,2.416-2.416,2.416h-8.692c-1.329,0-2.417-1.087-2.417-2.416v-8.931
				C191.595,583.938,192.682,582.852,194.011,582.852z"/>
			<path fill-rule="evenodd" clip-rule="evenodd" fill="#CCCCCC" d="M210.701,582.852h8.692c1.329,0,2.416,1.087,2.416,2.416v8.931
				c0,1.329-1.087,2.416-2.416,2.416h-8.692c-1.33,0-2.417-1.087-2.417-2.416v-8.931
				C208.285,583.938,209.371,582.852,210.701,582.852z"/>
			<path fill-rule="evenodd" clip-rule="evenodd" fill="#CCCCCC" d="M227.391,582.852h8.692c1.33,0,2.416,1.087,2.416,2.416v8.931
				c0,1.329-1.086,2.416-2.416,2.416h-8.692c-1.329,0-2.416-1.087-2.416-2.416v-8.931
				C224.975,583.938,226.061,582.852,227.391,582.852z"/>
			<path fill-rule="evenodd" clip-rule="evenodd" fill="#CCCCCC" d="M244.08,582.852h8.692c1.329,0,2.416,1.087,2.416,2.416v8.931
				c0,1.329-1.087,2.416-2.416,2.416h-8.692c-1.33,0-2.417-1.087-2.417-2.416v-8.931
				C241.664,583.938,242.751,582.852,244.08,582.852z"/>
			<path fill-rule="evenodd" clip-rule="evenodd" fill="#CCCCCC" d="M260.77,582.852h8.692c1.33,0,2.416,1.087,2.416,2.416v8.931
				c0,1.329-1.086,2.416-2.416,2.416h-8.692c-1.329,0-2.416-1.087-2.416-2.416v-8.931
				C258.354,583.938,259.441,582.852,260.77,582.852z"/>
			<path fill-rule="evenodd" clip-rule="evenodd" fill="#CCCCCC" d="M277.46,582.852h8.692c1.329,0,2.416,1.087,2.416,2.416v8.931
				c0,1.329-1.087,2.416-2.416,2.416h-8.692c-1.329,0-2.416-1.087-2.416-2.416v-8.931
				C275.044,583.938,276.131,582.852,277.46,582.852z"/>
			<path fill-rule="evenodd" clip-rule="evenodd" fill="#CCCCCC" d="M294.149,582.852h8.692c1.33,0,2.416,1.087,2.416,2.416v8.931
				c0,1.329-1.086,2.416-2.416,2.416h-8.692c-1.329,0-2.416-1.087-2.416-2.416v-8.931
				C291.733,583.938,292.82,582.852,294.149,582.852z"/>
			<path fill-rule="evenodd" clip-rule="evenodd" fill="#CCCCCC" d="M310.84,582.852h8.692c1.329,0,2.416,1.087,2.416,2.416v8.931
				c0,1.329-1.087,2.416-2.416,2.416h-8.692c-1.33,0-2.417-1.087-2.417-2.416v-8.931C308.423,583.938,309.51,582.852,310.84,582.852
				z"/>
			<path fill-rule="evenodd" clip-rule="evenodd" fill="#CCCCCC" d="M327.529,582.852h8.692c1.329,0,2.416,1.087,2.416,2.416v8.931
				c0,1.329-1.087,2.416-2.416,2.416h-8.692c-1.329,0-2.416-1.087-2.416-2.416v-8.931
				C325.113,583.938,326.2,582.852,327.529,582.852z"/>
			<path fill-rule="evenodd" clip-rule="evenodd" fill="#CCCCCC" d="M344.219,582.852h8.692c1.329,0,2.416,1.087,2.416,2.416v8.931
				c0,1.329-1.087,2.416-2.416,2.416h-8.692c-1.329,0-2.416-1.087-2.416-2.416v-8.931
				C341.803,583.938,342.89,582.852,344.219,582.852z"/>
			<path fill-rule="evenodd" clip-rule="evenodd" fill="#CCCCCC" d="M360.951,582.852h15.718c1.353,0,2.459,1.107,2.459,2.458v8.846
				c0,1.353-1.107,2.459-2.459,2.459h-15.718c-1.352,0-2.459-1.106-2.459-2.459v-8.846
				C358.492,583.958,359.599,582.852,360.951,582.852z"/>
			<path fill-rule="evenodd" clip-rule="evenodd" fill="#CCCCCC" d="M385.52,582.851h8.27c1.265,0,2.299,1.035,2.299,2.299v9.166
				c0,1.265-1.034,2.299-2.299,2.299h-8.27c-1.265,0-2.299-1.034-2.299-2.299v-9.166
				C383.222,583.886,384.256,582.851,385.52,582.851z"/>
			<path fill-rule="evenodd" clip-rule="evenodd" fill="#CCCCCC" d="M255.08,608.192h86.728c1.322,0,2.404,1.082,2.404,2.404v41.701
				c0,1.322-1.082,2.404-2.404,2.404H255.08c-1.323,0-2.405-1.082-2.405-2.404v-41.701
				C252.675,609.274,253.757,608.192,255.08,608.192z"/>
			<path fill-rule="evenodd" clip-rule="evenodd" fill="#CCCCCC" d="M253.174,657.817h43.134c0.275,0,0.499,0.225,0.499,0.5v8.661
				c0,0.274-0.224,0.499-0.499,0.499h-43.134c-0.275,0-0.499-0.225-0.499-0.499v-8.661
				C252.675,658.042,252.899,657.817,253.174,657.817z"/>
			<path fill-rule="evenodd" clip-rule="evenodd" fill="#CCCCCC" d="M300.579,657.817h43.134c0.275,0,0.499,0.225,0.499,0.5v8.661
				c0,0.274-0.224,0.499-0.499,0.499h-43.134c-0.275,0-0.499-0.225-0.499-0.499v-8.661
				C300.08,658.042,300.303,657.817,300.579,657.817z"/>
		</g>
		<g>
			<g>
				<g>
					<path fill-rule="evenodd" clip-rule="evenodd" fill="#F06358" d="M159.792,417.926c27.14,0,54.307,0,81.446,0
						c27.139,0,54.308,0,81.475,0c0.087,6.732,0.159,13.462,0.231,20.192c0.072,6.73,0.174,13.462,0.26,20.192
						c-25.347,0-50.694,0-76.041,0c-25.319,0-50.665,0-75.984,0c-1.907-6.73-3.801-13.465-5.693-20.192
						C163.593,431.384,161.7,424.657,159.792,417.926z"/>
					<path fill-rule="evenodd" clip-rule="evenodd" fill="#F58982" d="M159.792,417.926c27.14,0,54.307,0,81.446,0
						c27.139,0,54.308,0,81.475,0c0,0.763,0.029,1.525,0,2.288c-27.052,0-54.105,0-81.157,0c-27.053,0-54.105,0-81.128,0
						C160.226,419.45,160.024,418.688,159.792,417.926z"/>
				</g>
				<g>
					<path fill-rule="evenodd" clip-rule="evenodd" fill="#346896" d="M259.736,424.259c-11.763,0-20.766,3.709-20.318,6.641
						c0.448,2.934,4.017,4.148,9.394,5.357c-0.868,0.914-1.734,1.827-2.573,2.74c2.313-0.652,4.624-1.311,6.937-1.971
						c2.485,0.33,0.939,0.508,8.121,0.508c7.182,0,20.607-2.967,20.318-6.635C281.327,427.232,271.499,424.259,259.736,424.259z"/>
					<g>
						<path fill-rule="evenodd" clip-rule="evenodd" fill="#FFFFFF" d="M251.152,429.986c1.575,0,2.919,0.468,3.006,1.044
							c0.058,0.57-1.156,1.037-2.746,1.037c-1.561,0-2.89-0.467-2.948-1.037C248.378,430.454,249.577,429.986,251.152,429.986z"/>
						<path fill-rule="evenodd" clip-rule="evenodd" fill="#FFFFFF" d="M260.401,429.986c1.589,0,2.919,0.468,3.006,1.044
							c0.029,0.57-1.186,1.037-2.775,1.037c-1.589,0-2.919-0.467-2.977-1.037C257.598,430.454,258.811,429.986,260.401,429.986z"/>
						<path fill-rule="evenodd" clip-rule="evenodd" fill="#FFFFFF" d="M269.65,429.986c1.589,0,2.89,0.468,2.948,1.044
							c0.058,0.57-1.156,1.037-2.746,1.037c-1.59,0-2.89-0.467-2.948-1.037C266.846,430.454,268.06,429.986,269.65,429.986z"/>
					</g>
				</g>
				<g>
					<path fill-rule="evenodd" clip-rule="evenodd" fill="#FFD500" d="M216.037,429.279c11.676,0,21.705,3.705,22.167,6.642
						c0.463,2.935-2.688,4.155-7.63,5.363c1.099,0.914,2.226,1.828,3.353,2.74c-2.485-0.658-4.972-1.318-7.486-1.978
						c-2.399,0.329-0.737,0.515-7.862,0.515c-7.124,0-21.387-2.973-22.225-6.641C195.516,432.253,204.36,429.279,216.037,429.279z"
						/>
					<g>
						<path fill-rule="evenodd" clip-rule="evenodd" fill="#FFFFFF" d="M226.296,435.007c-1.561,0-2.746,0.467-2.659,1.044
							c0.115,0.577,1.445,1.044,3.005,1.044c1.59,0,2.746-0.467,2.659-1.044C229.186,435.474,227.857,435.007,226.296,435.007z"/>
						<path fill-rule="evenodd" clip-rule="evenodd" fill="#FFFFFF" d="M217.135,435.007c-1.575,0-2.775,0.467-2.63,1.044
							c0.086,0.577,1.445,1.044,3.035,1.044c1.531,0,2.716-0.467,2.63-1.044C220.054,435.474,218.709,435.007,217.135,435.007z"/>
						<path fill-rule="evenodd" clip-rule="evenodd" fill="#FFFFFF" d="M207.973,435.007c-1.561,0-2.746,0.467-2.602,1.044
							c0.087,0.577,1.474,1.044,3.006,1.044c1.589,0,2.746-0.467,2.63-1.044C210.892,435.474,209.533,435.007,207.973,435.007z"/>
					</g>
				</g>
				<g>
					<path fill-rule="evenodd" clip-rule="evenodd" fill="#FFFFFF" d="M256.961,440.131c-11.474,0-20.188,3.709-19.711,6.642
						c0.477,2.934,3.988,4.148,9.22,5.357c-0.838,0.913-1.676,1.826-2.457,2.74c2.254-0.652,4.479-1.313,6.734-1.971
						c2.428,0.329,0.911,0.515,7.891,0.515c6.979,0,20.014-2.974,19.682-6.642C277.988,443.104,268.435,440.131,256.961,440.131z"/>
					<g>
						<path fill-rule="evenodd" clip-rule="evenodd" fill="#346896" d="M248.667,445.858c1.546,0,2.861,0.468,2.948,1.045
							c0.087,0.57-1.098,1.037-2.659,1.037c-1.531,0-2.832-0.467-2.919-1.037C245.95,446.326,247.121,445.858,248.667,445.858z"/>
						<path fill-rule="evenodd" clip-rule="evenodd" fill="#346896" d="M257.684,445.858c1.546,0,2.861,0.468,2.919,1.045
							c0.058,0.57-1.156,1.037-2.659,1.037c-1.561,0-2.833-0.467-2.919-1.037C254.967,446.326,256.139,445.858,257.684,445.858z"/>
						<path fill-rule="evenodd" clip-rule="evenodd" fill="#346896" d="M266.673,445.858c1.531,0,2.832,0.468,2.89,1.045
							c0.058,0.57-1.128,1.037-2.688,1.037c-1.503,0-2.803-0.467-2.861-1.037C263.956,446.326,265.141,445.858,266.673,445.858z"/>
					</g>
				</g>
			</g>
			<g>
				<g>
					<path fill-rule="evenodd" clip-rule="evenodd" fill="#FF8800" d="M202.568,389.629c28.411,0,56.851,0,85.261,0
						c28.411,0,56.851,0,85.29,0c-0.491,6.737-0.953,13.468-1.416,20.2c-0.462,6.73-0.896,13.461-1.358,20.191
						c-26.618,0-53.237,0-79.857,0c-26.59,0-53.209,0-79.799,0c-1.387-6.73-2.717-13.461-4.075-20.191
						C205.256,403.098,203.897,396.366,202.568,389.629z"/>
					<path fill-rule="evenodd" clip-rule="evenodd" fill="#FFD4A3" d="M202.568,389.629c28.411,0,56.851,0,85.261,0
						c28.411,0,56.851,0,85.29,0c-0.087,0.763-0.143,1.524-0.173,2.287c-28.354,0-56.678,0-84.973,0c-28.324,0-56.648,0-84.973,0
						C202.828,391.153,202.684,390.392,202.568,389.629z"/>
				</g>
				<path fill-rule="evenodd" clip-rule="evenodd" fill="#FFC685" d="M255.112,395.782c21.012,0,42.053,0,63.093,0
					c0.029,1.43,0.058,2.851,0.087,4.272c-20.897,0-41.793,0-62.66,0C255.458,398.633,255.285,397.212,255.112,395.782z"/>
				<path fill-rule="evenodd" clip-rule="evenodd" fill="#FFC685" d="M215.776,401.923c23.757,0,47.544,0,71.273,0
					c23.758,0,47.544,0,71.302,0c0.028-0.247,0.028-0.502,0.058-0.756c-23.816,0-47.602,0-71.388,0s-47.602,0-71.359,0
					C215.689,401.421,215.747,401.676,215.776,401.923z"/>
				<path fill-rule="evenodd" clip-rule="evenodd" fill="#FFFFFF" d="M216.037,403.331c23.699,0,47.428,0,71.128,0
					c23.7,0,47.428,0,71.157,0c0-0.248,0-0.502,0.029-0.756c-23.758,0-47.516,0-71.244,0c-23.728,0-47.457,0-71.185,0
					C215.949,402.829,216.007,403.083,216.037,403.331z"/>
				<path fill-rule="evenodd" clip-rule="evenodd" fill="#346896" d="M216.238,404.505c12.804,0,25.607,0,38.411,0
					c0.202,1.43,0.376,2.852,0.549,4.272c-12.717,0-25.463,0-38.151,0C216.788,407.356,216.527,405.934,216.238,404.505z"/>
				<path fill-rule="evenodd" clip-rule="evenodd" fill="#FFD500" d="M268.06,404.505c12.804,0,25.579,0,38.382,0
					c0.058,1.43,0.115,2.852,0.202,4.272c-12.746,0-25.434,0-38.122,0C268.349,407.356,268.205,405.934,268.06,404.505z"/>
				<path fill-rule="evenodd" clip-rule="evenodd" fill="#D4453B" d="M319.852,404.505c12.774,0,25.578,0,38.383,0
					c-0.059,1.43-0.116,2.852-0.174,4.272c-12.717,0-25.435,0-38.122,0C319.91,407.356,319.882,405.934,319.852,404.505z"/>
				<path fill-rule="evenodd" clip-rule="evenodd" fill="#FFFFFF" d="M217.366,410.474c12.659,0,25.347,0,38.035,0
					c-0.029-0.247-0.058-0.494-0.087-0.748c-12.717,0-25.434,0-38.093,0C217.279,409.979,217.308,410.226,217.366,410.474z"/>
				<path fill-rule="evenodd" clip-rule="evenodd" fill="#FFFFFF" d="M217.626,411.89c12.63,0,25.29,0,37.948,0
					c-0.029-0.248-0.058-0.502-0.086-0.756c-12.688,0-25.347,0-38.006,0C217.51,411.388,217.568,411.642,217.626,411.89z"/>
				<path fill-rule="evenodd" clip-rule="evenodd" fill="#FFFFFF" d="M217.886,413.297c12.601,0,25.231,0,37.862,0
					c-0.029-0.247-0.058-0.495-0.087-0.749c-12.659,0-25.29,0-37.92,0C217.77,412.802,217.857,413.05,217.886,413.297z"/>
				<path fill-rule="evenodd" clip-rule="evenodd" fill="#FFFFFF" d="M218.146,414.712c12.572,0,25.174,0,37.775,0
					c-0.058-0.248-0.058-0.502-0.116-0.756c-12.602,0-25.232,0-37.804,0C218.059,414.21,218.088,414.464,218.146,414.712z"/>
				<path fill-rule="evenodd" clip-rule="evenodd" fill="#FFFFFF" d="M268.667,410.474c12.688,0,25.347,0,38.035,0
					c-0.029-0.247-0.029-0.494-0.029-0.748c-12.717,0-25.404,0-38.064,0C268.638,409.979,268.638,410.226,268.667,410.474z"/>
				<path fill-rule="evenodd" clip-rule="evenodd" fill="#FFFFFF" d="M268.811,411.89c12.63,0,25.26,0,37.92,0
					c0-0.248,0-0.502-0.029-0.756c-12.659,0-25.318,0-37.977,0C268.754,411.388,268.783,411.642,268.811,411.89z"/>
				<path fill-rule="evenodd" clip-rule="evenodd" fill="#FFFFFF" d="M268.956,413.297c12.602,0,25.203,0,37.833,0
					c0-0.247-0.029-0.495,0-0.749c-12.659,0-25.29,0-37.891,0C268.898,412.802,268.956,413.05,268.956,413.297z"/>
				<path fill-rule="evenodd" clip-rule="evenodd" fill="#FFFFFF" d="M269.101,414.712c12.572,0,25.145,0,37.746,0
					c0-0.248,0-0.502-0.028-0.756c-12.631,0-25.203,0-37.805,0C269.043,414.21,269.072,414.464,269.101,414.712z"/>
				<path fill-rule="evenodd" clip-rule="evenodd" fill="#FFFFFF" d="M319.969,410.474c12.658,0,25.317,0,38.006,0
					c0.029-0.247,0.029-0.494,0.029-0.748c-12.688,0-25.377,0-38.064,0C319.969,409.979,319.969,410.226,319.969,410.474z"/>
				<path fill-rule="evenodd" clip-rule="evenodd" fill="#FFFFFF" d="M319.997,411.89c12.63,0,25.261,0,37.92,0
					c0-0.248,0.029-0.502,0.029-0.756c-12.688,0-25.319,0-37.978,0C319.969,411.388,319.969,411.642,319.997,411.89z"/>
				<path fill-rule="evenodd" clip-rule="evenodd" fill="#FFFFFF" d="M319.997,413.297c12.602,0,25.203,0,37.833,0
					c0.029-0.247,0.029-0.495,0.058-0.749c-12.63,0-25.261,0-37.891,0C319.997,412.802,320.026,413.05,319.997,413.297z"/>
				<path fill-rule="evenodd" clip-rule="evenodd" fill="#FFFFFF" d="M320.055,414.712c12.572,0,25.146,0,37.746,0
					c0-0.248,0-0.502,0-0.756c-12.6,0-25.202,0-37.774,0C320.026,414.21,320.026,414.464,320.055,414.712z"/>
				<path fill-rule="evenodd" clip-rule="evenodd" fill="#FFC685" d="M218.551,416.944c23.18,0,46.388,0,69.567,0
					c23.15,0,46.359,0,69.567,0c0.029-0.248,0.029-0.502,0.029-0.756c-23.237,0-46.446,0-69.654,0c-23.208,0-46.446,0-69.654,0
					C218.464,416.442,218.493,416.696,218.551,416.944z"/>
				<path fill-rule="evenodd" clip-rule="evenodd" fill="#FFFFFF" d="M244.823,418.551c13.411,0,26.793,0,40.232,0
					c0-0.247-0.029-0.501-0.029-0.755c-13.469,0-26.879,0-40.29,0C244.736,418.05,244.794,418.304,244.823,418.551z"/>
				<path fill-rule="evenodd" clip-rule="evenodd" fill="#FFFFFF" d="M245.025,419.959c13.382,0,26.764,0,40.145,0
					c0-0.247-0.029-0.495-0.058-0.749c-13.411,0-26.793,0-40.203,0C244.967,419.464,244.996,419.712,245.025,419.959z"/>
				<path fill-rule="evenodd" clip-rule="evenodd" fill="#FFD500" d="M218.695,417.796c6.59,0,13.151,0,19.741,0
					c0.086,0.742,0.202,1.477,0.318,2.211c-6.561,0-13.093,0-19.654,0C218.984,419.272,218.839,418.538,218.695,417.796z"/>
				<path fill-rule="evenodd" clip-rule="evenodd" fill="#FFFFFF" d="M317.396,418.551c13.381,0,26.792,0,40.202,0
					c0.029-0.247,0.029-0.501,0.059-0.755c-13.44,0-26.851,0-40.29,0C317.367,418.05,317.396,418.304,317.396,418.551z"/>
				<path fill-rule="evenodd" clip-rule="evenodd" fill="#FFFFFF" d="M317.425,419.959c13.382,0,26.764,0,40.116,0
					c0-0.247,0.029-0.495,0.029-0.749c-13.382,0-26.764,0-40.174,0C317.425,419.464,317.425,419.712,317.425,419.959z"/>
				<path fill-rule="evenodd" clip-rule="evenodd" fill="#D4453B" d="M291.355,417.796c6.59,0,13.15,0,19.74,0
					c0,0.742,0.028,1.477,0.058,2.211c-6.561,0-13.093,0-19.654,0C291.442,419.272,291.413,418.538,291.355,417.796z"/>
				<path fill-rule="evenodd" clip-rule="evenodd" fill="#FFFFFF" d="M245.256,421.648c13.353,0,26.677,0,40.03,0
					c0-0.247,0-0.495-0.058-0.749c-13.382,0-26.734,0-40.087,0C245.198,421.153,245.227,421.401,245.256,421.648z"/>
				<path fill-rule="evenodd" clip-rule="evenodd" fill="#FFFFFF" d="M245.458,423.063c13.295,0,26.619,0,39.943,0
					c-0.029-0.248-0.029-0.502-0.058-0.756c-13.323,0-26.647,0-39.971,0C245.372,422.561,245.43,422.815,245.458,423.063z"/>
				<path fill-rule="evenodd" clip-rule="evenodd" fill="#346896" d="M219.273,420.899c6.532,0,13.092,0,19.624,0
					c0.116,0.735,0.202,1.471,0.347,2.205c-6.532,0-13.035,0-19.538,0C219.533,422.37,219.418,421.635,219.273,420.899z"/>
				<path fill-rule="evenodd" clip-rule="evenodd" fill="#FFFFFF" d="M317.454,421.648c13.352,0,26.677,0,40.029,0
					c0-0.247,0.029-0.495,0-0.749c-13.324,0-26.677,0-40.029,0C317.454,421.153,317.454,421.401,317.454,421.648z"/>
				<path fill-rule="evenodd" clip-rule="evenodd" fill="#FFFFFF" d="M317.483,423.063c13.294,0,26.618,0,39.913,0
					c0-0.248,0.029-0.502,0.058-0.756c-13.323,0-26.648,0-39.971,0C317.483,422.561,317.483,422.815,317.483,423.063z"/>
				<path fill-rule="evenodd" clip-rule="evenodd" fill="#FFD500" d="M291.558,420.899c6.531,0,13.093,0,19.625,0
					c0.028,0.735,0.028,1.471,0.086,2.205c-6.532,0-13.035,0-19.566,0C291.644,422.37,291.615,421.635,291.558,420.899z"/>
				<path fill-rule="evenodd" clip-rule="evenodd" fill="#FFFFFF" d="M245.719,424.753c13.266,0,26.532,0,39.827,0
					c-0.029-0.247-0.058-0.502-0.087-0.756c-13.294,0-26.59,0-39.885,0C245.632,424.251,245.661,424.506,245.719,424.753z"/>
				<path fill-rule="evenodd" clip-rule="evenodd" fill="#FFFFFF" d="M245.892,426.161c13.237,0,26.474,0,39.741,0
					c0-0.248-0.029-0.495-0.058-0.748c-13.266,0-26.532,0-39.769,0C245.834,425.666,245.863,425.913,245.892,426.161z"/>
				<path fill-rule="evenodd" clip-rule="evenodd" fill="#D4453B" d="M219.851,423.997c6.503,0,13.006,0,19.509,0
					c0.115,0.742,0.231,1.477,0.347,2.212c-6.474,0-12.977,0-19.451,0C220.111,425.474,219.967,424.739,219.851,423.997z"/>
				<path fill-rule="evenodd" clip-rule="evenodd" fill="#FFFFFF" d="M317.54,424.753c13.267,0,26.533,0,39.799,0
					c0-0.247,0.028-0.502,0-0.756c-13.266,0-26.562,0-39.827,0C317.512,424.251,317.512,424.506,317.54,424.753z"/>
				<path fill-rule="evenodd" clip-rule="evenodd" fill="#FFFFFF" d="M317.54,426.161c13.237,0,26.475,0,39.712,0
					c0.029-0.248,0.029-0.495,0.058-0.748c-13.266,0-26.503,0-39.77,0C317.54,425.666,317.54,425.913,317.54,426.161z"/>
				<path fill-rule="evenodd" clip-rule="evenodd" fill="#346896" d="M291.76,423.997c6.503,0,13.006,0,19.509,0
					c0.029,0.742,0.058,1.477,0.087,2.212c-6.475,0-12.977,0-19.451,0C291.847,425.474,291.788,424.739,291.76,423.997z"/>
			</g>
			<g>
				<g>
					<path fill-rule="evenodd" clip-rule="evenodd" fill="#346896" d="M271.76,405.727c27.688,0,55.405,0,83.094,0
						c27.717,0,55.434,0,83.18,0c-1.185,6.73-2.355,13.465-3.525,20.193c-1.171,6.732-2.37,13.461-3.555,20.192
						c-25.926,0-51.851,0-77.719,0c-25.867,0-51.764,0-77.631,0c-0.665-6.731-1.257-13.464-1.908-20.192
						C273.045,419.188,272.424,412.458,271.76,405.727z"/>
					<path fill-rule="evenodd" clip-rule="evenodd" fill="#5896CC" d="M271.76,405.727c27.688,0,55.405,0,83.094,0
						c27.717,0,55.434,0,83.18,0c-0.145,0.763-0.26,1.525-0.404,2.28c-27.63,0-55.261,0-82.862,0c-27.572,0-55.174,0-82.776,0
						C271.933,407.253,271.846,406.49,271.76,405.727z"/>
				</g>
				<g>
					<path fill-rule="evenodd" clip-rule="evenodd" fill="#5896CC" d="M299.506,433.675c18.093,0,36.186,0,54.249,0
						c18.064,0,36.186,0,54.278,0c-0.058,0.433-0.115,0.865-0.174,1.291c-18.063,0-36.127,0-54.162,0c-18.035,0-36.099,0-54.134,0
						C299.535,434.54,299.535,434.107,299.506,433.675z"/>
					<path fill-rule="evenodd" clip-rule="evenodd" fill="#FF8800" d="M313.119,432.597c-0.752,0-1.503,0-2.255,0
						c0.028,1.154,0.058,2.301,0.115,3.447c0.752,0,1.503,0,2.255,0C313.177,434.897,313.147,433.751,313.119,432.597z"/>
					<path fill-rule="evenodd" clip-rule="evenodd" fill="#D4453B" d="M334.391,415.481c11.388,0,22.746,0,34.104,0
						c4.855,0,8.685,1.408,8.555,3.125c-0.131,1.738-0.259,3.475-0.404,5.213c-0.144,1.717-4.133,3.125-8.873,3.125
						c-11.156,0-22.313,0-33.469,0c-4.711,0-8.599-1.408-8.612-3.125c-0.015-1.738-0.044-3.476-0.059-5.213
						C325.619,416.89,329.593,415.481,334.391,415.481z"/>
					<path fill-rule="evenodd" clip-rule="evenodd" fill="#FFFFFF" d="M343.581,417.864c5.174,1.119,10.29,2.238,15.435,3.352
						c-5.232,1.119-10.405,2.232-15.579,3.345C343.466,422.328,343.523,420.097,343.581,417.864z"/>
					<path fill-rule="evenodd" clip-rule="evenodd" fill="#5896CC" d="M392.629,437.081c1.185,0,2.369,0,3.555,0
						c0,0.18-0.029,0.351-0.029,0.522c-0.693,0-1.358,0-2.022,0c-0.029,0.254-0.059,0.508-0.087,0.763c-0.55,0-1.041,0-1.561,0
						C392.542,437.94,392.57,437.514,392.629,437.081L392.629,437.081z M393.987,438.97c-0.029,0.254-0.059,0.508-0.087,0.763
						c0.664,0,1.329,0,1.994,0c-0.029,0.179-0.029,0.351-0.058,0.522c-1.186,0-2.37,0-3.526,0c0.028-0.426,0.087-0.852,0.145-1.285
						C392.946,438.97,393.467,438.97,393.987,438.97L393.987,438.97z M401.877,437.081c1.185,0,2.399,0,3.584,0
						c-0.058,0.433-0.087,0.859-0.174,1.285c-0.52,0-1.04,0-1.561,0c0.058-0.255,0.058-0.509,0.116-0.763c-0.665,0-1.358,0-2.023,0
						C401.849,437.432,401.877,437.261,401.877,437.081L401.877,437.081z M405.229,438.97c-0.058,0.434-0.115,0.859-0.173,1.285
						c-1.185,0-2.37,0-3.555,0c0.028-0.172,0.028-0.344,0.058-0.522c0.664,0,1.329,0,1.994,0c0.058-0.255,0.058-0.509,0.115-0.763
						C404.16,438.97,404.71,438.97,405.229,438.97z"/>
					<g>
						<path fill-rule="evenodd" clip-rule="evenodd" fill="#5896CC" d="M358.351,437.205c-1.416,0.24-2.833,0.48-4.22,0.722
							c-0.81,0-1.59,0-2.37,0c-0.029,0.494-0.029,0.988-0.058,1.482c0.78,0,1.56,0,2.37,0c1.387,0.24,2.745,0.482,4.162,0.722
							C358.264,439.155,358.293,438.181,358.351,437.205z"/>
						<path fill="#5896CC" d="M360.113,437.102c1.185,0.186,1.966,0.543,2.342,0.954c0.202,0.213,0.288,0.44,0.26,0.667
							c-0.029,0.227-0.174,0.445-0.405,0.652c-0.434,0.385-1.242,0.707-2.398,0.858c-0.087-0.068-0.145-0.145-0.202-0.219
							c0.954-0.124,1.647-0.398,2.022-0.722c0.203-0.185,0.348-0.378,0.348-0.577s-0.058-0.398-0.203-0.584
							c-0.347-0.35-0.982-0.658-2.022-0.81C359.94,437.253,360.026,437.177,360.113,437.102z"/>
						<path fill="#5896CC" d="M360.113,437.617c0.376,0.089,0.694,0.206,0.896,0.35l0,0c0.347,0.199,0.52,0.44,0.52,0.687
							c0,0.24-0.173,0.487-0.549,0.7c-0.231,0.145-0.549,0.267-0.982,0.364c-0.116-0.061-0.202-0.13-0.318-0.199
							c0.347-0.075,0.607-0.172,0.78-0.288c0.289-0.172,0.434-0.371,0.463-0.577c-0.029-0.199-0.174-0.398-0.434-0.564l0,0
							c-0.174-0.109-0.434-0.206-0.723-0.274C359.882,437.755,359.998,437.685,360.113,437.617z"/>
					</g>
					<path fill="#5896CC" d="M343.713,439.767v-0.337l0.042,0.001c0.202,0,0.346-0.031,0.491-0.09
						c0.143-0.059,0.217-0.156,0.231-0.289c0.015-0.136-0.058-0.242-0.202-0.301c-0.173-0.071-0.347-0.097-0.549-0.097h-0.014v-0.3
						c0.051-0.002,0.103-0.003,0.158-0.003c0.462,0,0.866,0.063,1.185,0.192c0.317,0.131,0.477,0.295,0.462,0.502
						c-0.015,0.219-0.143,0.392-0.491,0.521C344.655,439.705,344.227,439.766,343.713,439.767L343.713,439.767z M343.713,437.934
						v-0.336l0.129-0.001c0.434,0,0.807,0.057,1.069,0.137c0.315,0.098,0.462,0.221,0.549,0.392
						c-0.375,0.02-0.723,0.033-1.099,0.047c0-0.082-0.054-0.151-0.144-0.185c-0.113-0.042-0.289-0.056-0.434-0.056L343.713,437.934z
						 M343.713,437.598v0.336c-0.223,0.005-0.386,0.038-0.565,0.116c-0.148,0.064-0.23,0.233-0.289,0.48
						c0.225-0.102,0.517-0.161,0.854-0.176v0.3c-0.226,0.001-0.42,0.034-0.536,0.089c-0.142,0.067-0.231,0.151-0.231,0.275
						c0,0.13,0.091,0.225,0.261,0.302c0.139,0.064,0.296,0.104,0.507,0.109v0.337h-0.016c-0.607,0-1.102-0.074-1.474-0.247
						c-0.352-0.163-0.535-0.44-0.521-0.824c0.014-0.386,0.228-0.672,0.606-0.838C342.683,437.692,343.16,437.608,343.713,437.598
						L343.713,437.598z M325.258,439.767v-0.337l0.028,0.001c0.145,0,0.23-0.018,0.347-0.049c0.115-0.029,0.173-0.09,0.231-0.164
						c0.086-0.11,0.087-0.28,0.087-0.536c0-0.249,0.011-0.427-0.058-0.515c-0.076-0.099-0.172-0.158-0.261-0.186
						c-0.113-0.035-0.232-0.049-0.347-0.049h-0.028v-0.336h0.028c0.55,0,0.984,0.072,1.301,0.22
						c0.377,0.175,0.549,0.467,0.549,0.865c0,0.405-0.177,0.687-0.577,0.872c-0.293,0.137-0.694,0.213-1.272,0.213H325.258
						L325.258,439.767z M327.54,439.767c0.435-0.728,0.926-1.463,1.388-2.197c0.261,0,0.52,0,0.81,0
						c-0.463,0.734-0.925,1.47-1.388,2.197C328.061,439.767,327.801,439.767,327.54,439.767L327.54,439.767z M333.842,439.354
						c0,0.131,0,0.254,0,0.378c-1.301,0-2.573,0-3.873,0c0.028-0.144,0.175-0.279,0.376-0.405c0.203-0.128,0.606-0.303,1.242-0.516
						c0.491-0.164,0.788-0.267,0.925-0.343c0.124-0.069,0.217-0.169,0.202-0.255c-0.015-0.088-0.056-0.162-0.173-0.205
						c-0.143-0.053-0.318-0.076-0.578-0.076c-0.232,0-0.373,0.035-0.521,0.083c-0.171,0.056-0.23,0.13-0.23,0.254
						c-0.376-0.014-0.752-0.027-1.099-0.041c0.058-0.228,0.26-0.388,0.607-0.487c0.347-0.1,0.78-0.145,1.301-0.145
						c0.549,0,1.009,0.063,1.301,0.172c0.314,0.117,0.521,0.254,0.521,0.418c0,0.097-0.059,0.185-0.145,0.275
						c-0.087,0.09-0.257,0.186-0.434,0.274c-0.142,0.069-0.407,0.147-0.752,0.269c-0.319,0.111-0.574,0.207-0.636,0.232
						c-0.112,0.05-0.173,0.076-0.26,0.117C332.339,439.354,333.09,439.354,333.842,439.354L333.842,439.354z M334.998,438.599
						c0.028-0.13,0.028-0.268,0.028-0.404c0.376,0,0.723,0,1.099,0c0.028,0.137,0,0.274,0,0.404
						C335.749,438.599,335.373,438.599,334.998,438.599L334.998,438.599z M334.998,439.732c0-0.13,0.028-0.268,0-0.405
						c0.375,0,0.751,0,1.127,0c0,0.138,0,0.275,0,0.405C335.749,439.732,335.373,439.732,334.998,439.732L334.998,439.732z
						 M337.223,439.183c0.376-0.014,0.781-0.027,1.156-0.041c0,0.096,0.086,0.17,0.231,0.22c0.172,0.06,0.347,0.083,0.549,0.083
						c0.26,0,0.432-0.04,0.578-0.103c0.171-0.074,0.245-0.176,0.26-0.316c0.015-0.129-0.083-0.234-0.23-0.295
						c-0.17-0.07-0.376-0.096-0.608-0.096c-0.317,0-0.636,0.055-0.867,0.158c-0.317-0.014-0.607-0.027-0.896-0.049
						c0.173-0.363,0.376-0.734,0.607-1.105c0.953,0,1.907,0,2.89,0c0,0.131,0,0.254,0,0.378c-0.693,0-1.388,0-2.081,0
						c-0.087,0.123-0.145,0.247-0.202,0.364c0.289-0.049,0.521-0.069,0.78-0.069c0.491,0,0.893,0.069,1.214,0.192
						c0.373,0.145,0.507,0.309,0.491,0.516c-0.013,0.17-0.112,0.336-0.376,0.467c-0.401,0.199-0.925,0.281-1.561,0.281
						c-0.521,0-0.979-0.06-1.3-0.158C337.486,439.495,337.309,439.361,337.223,439.183z M325.258,437.597v0.336
						c-0.135,0.003-0.266,0.023-0.348,0.049c-0.115,0.035-0.185,0.098-0.23,0.172c-0.071,0.113-0.116,0.281-0.116,0.528
						c0,0.255,0.022,0.431,0.087,0.515c0.08,0.102,0.146,0.156,0.26,0.185c0.107,0.029,0.237,0.045,0.348,0.048v0.337
						c-0.536-0.002-0.988-0.081-1.33-0.24c-0.345-0.16-0.521-0.439-0.521-0.845s0.209-0.682,0.578-0.865
						C324.247,437.686,324.693,437.599,325.258,437.597L325.258,437.597z M320.792,439.767v-0.336h0.015
						c0.145,0,0.258-0.022,0.347-0.049c0.113-0.034,0.21-0.084,0.26-0.164c0.065-0.105,0.087-0.28,0.087-0.536
						c0-0.249-0.007-0.413-0.087-0.515c-0.065-0.084-0.176-0.146-0.289-0.186c-0.058-0.021-0.192-0.047-0.332-0.049v-0.336
						c0.571,0.001,1.001,0.073,1.315,0.22c0.377,0.175,0.549,0.467,0.549,0.865c0,0.405-0.172,0.696-0.549,0.872
						c-0.316,0.147-0.723,0.213-1.272,0.213H320.792z M313.654,437.597c0.542,0.002,0.995,0.084,1.285,0.22
						c0.4,0.187,0.578,0.467,0.578,0.865c0,0.405-0.167,0.708-0.521,0.872c-0.341,0.158-0.751,0.213-1.301,0.213h-0.042v-0.337
						l0.042,0.001c0.116,0,0.23-0.018,0.347-0.049c0.115-0.029,0.189-0.096,0.232-0.164c0.074-0.119,0.102-0.281,0.087-0.536
						c-0.014-0.247-0.036-0.413-0.115-0.515c-0.065-0.084-0.143-0.158-0.232-0.186c-0.109-0.033-0.224-0.048-0.36-0.049V437.597
						L313.654,437.597z M320.792,437.597v0.336h-0.015c-0.115,0-0.233,0.014-0.347,0.049c-0.089,0.027-0.17,0.092-0.231,0.172
						c-0.082,0.105-0.115,0.281-0.115,0.528c0,0.255,0.05,0.432,0.115,0.515c0.08,0.103,0.146,0.156,0.261,0.185
						c0.111,0.03,0.222,0.047,0.332,0.049v0.336c-0.558-0.004-1.007-0.076-1.344-0.24c-0.319-0.154-0.52-0.439-0.52-0.845
						s0.2-0.699,0.55-0.865c0.315-0.149,0.751-0.22,1.3-0.22H320.792L320.792,437.597z M316.702,438.599
						c0.029-0.13,0.029-0.268,0-0.404c0.347,0,0.723,0,1.099,0c0.029,0.137,0,0.274,0,0.404
						C317.425,438.599,317.049,438.599,316.702,438.599L316.702,438.599z M316.76,439.732c-0.028-0.13,0-0.268-0.028-0.405
						c0.347,0,0.723,0,1.099,0c0,0.138,0,0.275,0,0.405C317.483,439.732,317.107,439.732,316.76,439.732z M313.639,437.597h0.016
						v0.336h-0.016c-0.145,0-0.232,0.018-0.347,0.049c-0.116,0.03-0.186,0.098-0.232,0.172c-0.071,0.113-0.13,0.281-0.115,0.528
						c0.014,0.255,0.05,0.432,0.115,0.515c0.08,0.103,0.146,0.156,0.261,0.185c0.104,0.028,0.208,0.045,0.333,0.048v0.337
						c-0.559-0.004-1.002-0.088-1.316-0.24c-0.342-0.166-0.534-0.439-0.549-0.845c-0.015-0.406,0.177-0.688,0.549-0.865
						C312.63,437.678,313.06,437.597,313.639,437.597z"/>
					<path fill-rule="evenodd" clip-rule="evenodd" fill="#5896CC" d="M299.679,437.198c2.225,0.494,4.451,0.982,6.676,1.47
						c-2.168,0.495-4.335,0.982-6.503,1.47C299.795,439.163,299.737,438.181,299.679,437.198z"/>
				</g>
			</g>
		</g>
	</g>
	<path opacity="0.2" fill-rule="evenodd" clip-rule="evenodd" fill="#1A1A1A" d="M508.074,741.644l-3.522-13.845l4.951-1.26
		l-3.9-15.338l4.592-1.167l-3.112-12.237c-3.596-0.809-6.602-2.318-8.495-4.734l-20.968-26.757l-5.172-21.939
		c1.63-4.967,11.275-11.427,13.631-0.788l2.285,10.328l7.366,10.678c-1.791-6.874-3.255-12.702-4.561-17.477l-11.031-32.271
		l-5.858-14.302c-3.212-9.401,10.767-13.817,13.849-4.799l5.397,12.955l9.287,27.166c0.517-0.539,1.057-1.056,1.617-1.55
		l-6.307-27.078l-6.743-19.319c-2.188-9.4,11.085-12.525,14.27-3.342l6.829,19.686l5.445,23.382c0.31-0.065,1.164-0.267,1.602-0.278
		l-3.335-23.076l-4.954-17.055c-1.268-8.771,12.941-12.285,14.537-1.861l5.184,17.507l3.981,26.013
		c0.699,0.289,1.449,0.643,1.98,1.057l-1.009-17.069l-3.547-12.997c-2.771-10.163,14.109-11.358,14.627-0.938l3.963,14.866
		l1.018,29.579c4.525,18.869,2.51,32.929-4.934,42.132l3.618,14.231l4.592-1.168l3.9,15.337l4.951-1.259l7.372,28.988H508.074z"/>
	<g>
		
			<rect x="495.862" y="667.098" transform="matrix(0.9692 -0.2465 0.2465 0.9692 -155.6524 148.8305)" fill-rule="evenodd" clip-rule="evenodd" fill="#EBB588" width="41.748" height="58.264"/>
		<path fill-rule="evenodd" clip-rule="evenodd" fill="#EBB588" d="M476.483,634.529c1.308,4.776,2.77,10.603,4.563,17.477
			l-7.366-10.678l-2.286-10.328c-2.355-10.639-12.001-4.178-13.63,0.789l5.172,21.94l20.967,26.756
			c4.957,6.325,17.526,6.445,28.379,4.007c22.437-5.041,32.36-23.014,25.004-53.687l-1.018-29.579l-3.962-14.865
			c-0.518-10.422-17.399-9.226-14.627,0.937l3.546,12.997l1.009,17.071c-0.53-0.416-1.279-0.77-1.978-1.058l-3.983-26.014
			l-5.183-17.507c-1.597-10.424-15.805-6.91-14.537,1.861l4.953,17.055l3.336,23.077c-0.438,0.012-1.292,0.212-1.602,0.278
			l-5.445-23.383l-6.829-19.685c-3.186-9.183-16.459-6.059-14.271,3.342l6.744,19.319l6.307,27.078
			c-0.561,0.495-1.101,1.012-1.618,1.55l-9.286-27.166l-5.397-12.955c-3.083-9.019-17.06-4.602-13.85,4.798l5.858,14.304
			L476.483,634.529z"/>
		
			<rect x="492.078" y="692.069" transform="matrix(0.9691 -0.2465 0.2465 0.9691 -156.5618 149.199)" fill-rule="evenodd" clip-rule="evenodd" fill="#FFFFFF" width="51.224" height="15.825"/>
		<polygon fill-rule="evenodd" clip-rule="evenodd" fill="#346896" points="496.588,741.644 489.868,715.222 549.412,700.078 
			559.983,741.644 		"/>
	</g>
	<path opacity="0.2" fill-rule="evenodd" clip-rule="evenodd" fill="#1A1A1A" d="M137.938,741.644l21.918-38.271l-4.433-2.538
		l7.864-13.732l-4.111-2.354l6.41-11.191c3.549,0.119,6.773-0.491,9.319-2.053l49.15-30.15c-0.846-5.256-6.2-13.322-15.884-8.328
		l-22.888,11.807c3.566-6.145,6.537-11.367,9.076-15.619l32.15-46.948c5.612-8.196-6.673-16.194-12.058-8.331l-28.298,41.323
		c-0.355-0.657-0.735-1.3-1.145-1.927l11.908-21.949c4.626-8.473-8.223-15.588-12.853-7.042l-10.269,18.95
		c-0.281-0.148-1.05-0.568-1.469-0.697l6.832-15.521c3.57-8.111-9.178-15.302-13.508-5.687l-8.582,18.553
		c-0.751,0.091-1.569,0.231-2.191,0.488l3.348-9.809c3.403-9.969-10.553-14.722-13.842-4.818l-7.607,23.547
		c-9.413,16.969-11.234,31.055-6.528,41.914l-7.298,12.742l-4.111-2.353l-7.864,13.732l-4.433-2.538l-39.405,68.804H137.938z"/>
	<g>
		
			<rect x="103.495" y="636.173" transform="matrix(-0.8678 -0.497 0.497 -0.8678 -98.3561 1304.438)" fill-rule="evenodd" clip-rule="evenodd" fill="#EBB588" width="41.748" height="58.263"/>
		<path fill-rule="evenodd" clip-rule="evenodd" fill="#EBB588" d="M179.673,616.636c-2.538,4.252-5.508,9.475-9.075,15.619
			l22.887-11.807c9.685-4.994,15.038,3.072,15.884,8.328l-49.15,30.15c-6.85,4.203-18.611,1.518-28.415-3.738
			c-20.268-10.865-25.016-30.838-9.715-58.422l7.607-23.547c3.29-9.903,17.245-5.15,13.842,4.818l-3.348,9.81
			c0.622-0.259,1.439-0.398,2.19-0.489l8.583-18.552c4.33-9.616,17.078-2.426,13.508,5.686l-6.831,15.522
			c0.418,0.128,1.187,0.55,1.468,0.697l10.269-18.95c4.631-8.547,17.48-1.43,12.854,7.041l-11.907,21.949
			c0.409,0.627,0.789,1.27,1.145,1.927l28.297-41.323c5.385-7.863,17.67,0.135,12.059,8.332L179.673,616.636z"/>
		
			<rect x="96.834" y="660.751" transform="matrix(-0.8678 -0.497 0.497 -0.8678 -103.6104 1309.7593)" fill-rule="evenodd" clip-rule="evenodd" fill="#FFFFFF" width="51.224" height="15.826"/>
		<polygon fill-rule="evenodd" clip-rule="evenodd" fill="#346896" points="116.05,741.644 145.171,690.797 91.856,660.263 
			45.247,741.644 		"/>
	</g>
	<path opacity="0.2" fill-rule="evenodd" clip-rule="evenodd" fill="#1A1A1A" d="M34.508,164.032h54.364
		c10.311,0,18.747,8.436,18.747,18.746l0,104.171c0,10.311-8.435,18.746-18.746,18.746l-54.363,0.001
		c-10.311,0-18.747-8.436-18.747-18.746l-0.001-104.172C15.762,172.468,24.198,164.032,34.508,164.032z"/>
	<path opacity="0.2" fill-rule="evenodd" clip-rule="evenodd" fill="#1A1A1A" d="M554.704,196.911l32.192-0.001
		c6.106,0,11.101,4.995,11.101,11.101v86.584c0,6.105-4.995,11.102-11.101,11.102h-32.191c-6.105,0-11.1-4.995-11.1-11.101v-86.585
		C543.604,201.905,548.6,196.911,554.704,196.911z"/>
	<path opacity="0.2" fill-rule="evenodd" clip-rule="evenodd" fill="#1A1A1A" d="M215.351,193.443v83.02
		c0,16.078,13.155,29.233,29.233,29.233h143.322c16.078,0,29.232-13.155,29.232-29.233v-83.02c0-16.078-13.154-29.233-29.232-29.233
		H244.584C228.506,164.21,215.351,177.365,215.351,193.443z"/>
	<g>
		<g>
			<path fill-rule="evenodd" clip-rule="evenodd" fill="#FFFFFF" d="M18.746,150.532H73.11c10.31,0,18.746,8.436,18.746,18.745
				l0,104.172c0.001,10.31-8.435,18.746-18.746,18.746H18.747c-10.311,0-18.746-8.436-18.746-18.746L0,169.278
				C0,158.968,8.435,150.532,18.746,150.532z"/>
			<rect x="5.41" y="165.329" fill-rule="evenodd" clip-rule="evenodd" fill="#346896" width="81.037" height="107.191"/>
			<path fill-rule="evenodd" clip-rule="evenodd" fill="#CCCCCC" d="M32.319,158.356h27.218c0.74,0,1.344-0.605,1.344-1.345l0,0
				c0-0.739-0.604-1.345-1.344-1.345H32.319c-0.74,0-1.344,0.605-1.344,1.345v0.001C30.975,157.752,31.58,158.356,32.319,158.356z"
				/>
			<path fill-rule="evenodd" clip-rule="evenodd" fill="#CCCCCC" d="M23,284.61h45.856c1.146,0,2.083-0.938,2.083-2.084l0,0
				c0-1.146-0.937-2.084-2.083-2.084H23c-1.146,0-2.083,0.938-2.083,2.084l0,0C20.916,283.673,21.854,284.61,23,284.61z"/>
			<circle fill-rule="evenodd" clip-rule="evenodd" fill="#FFFFFF" cx="45.929" cy="282.526" r="8.158"/>
			<circle fill-rule="evenodd" clip-rule="evenodd" fill="#CCCCCC" cx="45.928" cy="282.526" r="5.75"/>
		</g>
		<rect x="31.42" y="171.409" fill-rule="evenodd" clip-rule="evenodd" fill="#FFC685" width="29.016" height="13.446"/>
		<rect x="12.819" y="188.351" fill-rule="evenodd" clip-rule="evenodd" fill="#FFC685" width="66.217" height="2.37"/>
		<rect x="12.819" y="192.794" fill-rule="evenodd" clip-rule="evenodd" fill="#FFFFFF" width="66.217" height="2.371"/>
		<rect x="12.819" y="198.865" fill-rule="evenodd" clip-rule="evenodd" fill="#FF8800" width="17.908" height="13.445"/>
		<rect x="36.974" y="198.865" fill-rule="evenodd" clip-rule="evenodd" fill="#FFD500" width="17.908" height="13.445"/>
		<rect x="61.129" y="198.865" fill-rule="evenodd" clip-rule="evenodd" fill="#D4453B" width="17.908" height="13.445"/>
		<rect x="12.819" y="215.276" fill-rule="evenodd" clip-rule="evenodd" fill="#FFFFFF" width="17.908" height="2.371"/>
		<rect x="12.819" y="219.72" fill-rule="evenodd" clip-rule="evenodd" fill="#FFFFFF" width="17.908" height="2.371"/>
		<rect x="12.819" y="224.162" fill-rule="evenodd" clip-rule="evenodd" fill="#FFFFFF" width="17.908" height="2.371"/>
		<rect x="12.819" y="228.604" fill-rule="evenodd" clip-rule="evenodd" fill="#FFFFFF" width="17.908" height="2.371"/>
		<rect x="36.975" y="215.276" fill-rule="evenodd" clip-rule="evenodd" fill="#FFFFFF" width="17.908" height="2.371"/>
		<rect x="36.975" y="219.72" fill-rule="evenodd" clip-rule="evenodd" fill="#FFFFFF" width="17.908" height="2.371"/>
		<rect x="36.975" y="224.162" fill-rule="evenodd" clip-rule="evenodd" fill="#FFFFFF" width="17.908" height="2.371"/>
		<rect x="36.975" y="228.604" fill-rule="evenodd" clip-rule="evenodd" fill="#FFFFFF" width="17.908" height="2.371"/>
		<rect x="61.129" y="215.276" fill-rule="evenodd" clip-rule="evenodd" fill="#FFFFFF" width="17.908" height="2.371"/>
		<rect x="61.129" y="219.72" fill-rule="evenodd" clip-rule="evenodd" fill="#FFFFFF" width="17.908" height="2.371"/>
		<rect x="61.129" y="224.162" fill-rule="evenodd" clip-rule="evenodd" fill="#FFFFFF" width="17.908" height="2.371"/>
		<rect x="61.129" y="228.604" fill-rule="evenodd" clip-rule="evenodd" fill="#FFFFFF" width="17.908" height="2.371"/>
		<rect x="12.819" y="235.628" fill-rule="evenodd" clip-rule="evenodd" fill="#FFC685" width="66.217" height="2.371"/>
		<rect x="25.209" y="240.681" fill-rule="evenodd" clip-rule="evenodd" fill="#FFFFFF" width="19.202" height="2.371"/>
		<rect x="25.209" y="245.123" fill-rule="evenodd" clip-rule="evenodd" fill="#FFFFFF" width="19.202" height="2.371"/>
		<rect x="12.819" y="240.681" fill-rule="evenodd" clip-rule="evenodd" fill="#FFD500" width="9.396" height="6.952"/>
		<rect x="59.835" y="240.681" fill-rule="evenodd" clip-rule="evenodd" fill="#FFFFFF" width="19.201" height="2.371"/>
		<rect x="59.835" y="245.123" fill-rule="evenodd" clip-rule="evenodd" fill="#FFFFFF" width="19.201" height="2.371"/>
		<rect x="47.446" y="240.681" fill-rule="evenodd" clip-rule="evenodd" fill="#D4453B" width="9.396" height="6.952"/>
		<rect x="25.209" y="250.44" fill-rule="evenodd" clip-rule="evenodd" fill="#FFFFFF" width="19.202" height="2.371"/>
		<rect x="25.209" y="254.883" fill-rule="evenodd" clip-rule="evenodd" fill="#FFFFFF" width="19.202" height="2.371"/>
		<rect x="12.819" y="250.439" fill-rule="evenodd" clip-rule="evenodd" fill="#FF8800" width="9.396" height="6.952"/>
		<rect x="59.835" y="250.44" fill-rule="evenodd" clip-rule="evenodd" fill="#FFFFFF" width="19.201" height="2.371"/>
		<rect x="59.835" y="254.883" fill-rule="evenodd" clip-rule="evenodd" fill="#FFFFFF" width="19.201" height="2.371"/>
		<rect x="47.446" y="250.439" fill-rule="evenodd" clip-rule="evenodd" fill="#FFD500" width="9.396" height="6.952"/>
		<rect x="25.209" y="260.199" fill-rule="evenodd" clip-rule="evenodd" fill="#FFFFFF" width="19.202" height="2.371"/>
		<rect x="25.209" y="264.642" fill-rule="evenodd" clip-rule="evenodd" fill="#FFFFFF" width="19.202" height="2.371"/>
		<rect x="12.819" y="260.199" fill-rule="evenodd" clip-rule="evenodd" fill="#D4453B" width="9.396" height="6.952"/>
		<rect x="59.835" y="260.199" fill-rule="evenodd" clip-rule="evenodd" fill="#FFFFFF" width="19.201" height="2.371"/>
		<rect x="59.835" y="264.642" fill-rule="evenodd" clip-rule="evenodd" fill="#FFFFFF" width="19.201" height="2.371"/>
		<rect x="47.446" y="260.199" fill-rule="evenodd" clip-rule="evenodd" fill="#FF8800" width="9.396" height="6.952"/>
	</g>
	<g>
		<g>
			<path fill-rule="evenodd" clip-rule="evenodd" fill="#FFFFFF" d="M538.942,183.41l32.192-0.001c6.105,0,11.1,4.996,11.102,11.102
				v86.584c0,6.105-4.995,11.101-11.101,11.101h-32.191c-6.105,0-11.101-4.995-11.101-11.101l-0.001-86.584
				C527.842,188.405,532.837,183.41,538.942,183.41z"/>
			<rect x="531.83" y="194.773" fill-rule="evenodd" clip-rule="evenodd" fill="#346896" width="46.462" height="82.314"/>
			<path fill-rule="evenodd" clip-rule="evenodd" fill="#CCCCCC" d="M544.61,189.419l20.901-0.001c0.567,0,1.032-0.464,1.032-1.032
				l0,0c0-0.568-0.465-1.032-1.032-1.032H544.61c-0.568,0-1.032,0.465-1.032,1.032l0,0
				C543.578,188.954,544.042,189.419,544.61,189.419z"/>
			<path fill-rule="evenodd" clip-rule="evenodd" fill="#CCCCCC" d="M537.455,286.371l35.213-0.001c0.88,0,1.601-0.72,1.601-1.6l0,0
				c0-0.881-0.721-1.601-1.601-1.601h-35.213c-0.88,0-1.6,0.72-1.6,1.601l0,0C535.854,285.651,536.575,286.371,537.455,286.371z"/>
			<circle fill-rule="evenodd" clip-rule="evenodd" fill="#FFFFFF" cx="555.039" cy="284.77" r="6.265"/>
			<circle fill-rule="evenodd" clip-rule="evenodd" fill="#CCCCCC" cx="555.039" cy="284.77" r="4.416"/>
		</g>
		<g>
			<path fill-rule="evenodd" clip-rule="evenodd" fill="#FF8800" d="M562.977,197.771c-6.974,0-12.627,4.877-12.627,10.894
				c0,3.613,2.038,6.813,5.176,8.796l-1.778,4.498l4.358-3.24c1.499,0.542,3.144,0.841,4.871,0.841
				c6.974,0,12.627-4.877,12.627-10.894C575.604,202.648,569.951,197.771,562.977,197.771z"/>
			<g>
				<path fill-rule="evenodd" clip-rule="evenodd" fill="#FFFFFF" d="M557.455,210.591c0.942,0,1.711-0.77,1.711-1.712
					c0-0.942-0.769-1.711-1.711-1.711c-0.942,0-1.712,0.769-1.712,1.711C555.743,209.821,556.513,210.591,557.455,210.591z"/>
				<path fill-rule="evenodd" clip-rule="evenodd" fill="#FFFFFF" d="M562.977,210.591c0.942,0,1.711-0.77,1.711-1.712
					c0-0.942-0.768-1.711-1.711-1.711s-1.711,0.769-1.711,1.711C561.267,209.821,562.035,210.591,562.977,210.591z"/>
				<path fill-rule="evenodd" clip-rule="evenodd" fill="#FFFFFF" d="M568.5,210.591c0.942,0,1.712-0.77,1.712-1.712
					c0-0.942-0.77-1.711-1.712-1.711c-0.942,0-1.711,0.769-1.711,1.711C566.789,209.821,567.558,210.591,568.5,210.591z"/>
			</g>
		</g>
		<g>
			<path fill-rule="evenodd" clip-rule="evenodd" fill="#FFD500" d="M547.194,223.214c6.973,0,12.627,4.877,12.627,10.894
				c0,3.612-2.039,6.814-5.177,8.795l1.778,4.498l-4.358-3.239c-1.499,0.541-3.143,0.84-4.87,0.84
				c-6.974,0-12.627-4.877-12.627-10.894S540.221,223.214,547.194,223.214z"/>
			<g>
				<path fill-rule="evenodd" clip-rule="evenodd" fill="#FFFFFF" d="M552.717,236.032c0.942,0,1.712-0.77,1.712-1.711
					c0-0.943-0.77-1.712-1.712-1.712c-0.942,0-1.711,0.769-1.711,1.712C551.006,235.263,551.774,236.032,552.717,236.032z"/>
				<path fill-rule="evenodd" clip-rule="evenodd" fill="#FFFFFF" d="M547.194,236.032c0.942,0,1.711-0.77,1.711-1.711
					c0-0.943-0.769-1.712-1.711-1.712s-1.712,0.769-1.712,1.712C545.482,235.263,546.252,236.032,547.194,236.032z"/>
				<path fill-rule="evenodd" clip-rule="evenodd" fill="#FFFFFF" d="M541.672,236.032c0.942,0,1.711-0.77,1.711-1.711
					c0-0.943-0.769-1.712-1.711-1.712c-0.943,0-1.712,0.769-1.712,1.712C539.96,235.263,540.728,236.032,541.672,236.032z"/>
			</g>
		</g>
		<g>
			<path fill-rule="evenodd" clip-rule="evenodd" fill="#FFFFFF" d="M562.977,249.627c-6.974,0-12.627,4.877-12.627,10.894
				c0,3.612,2.038,6.814,5.176,8.795l-1.778,4.498l4.358-3.24c1.499,0.542,3.144,0.841,4.871,0.841
				c6.974,0,12.627-4.877,12.627-10.894C575.604,254.504,569.951,249.627,562.977,249.627z"/>
			<g>
				<path fill-rule="evenodd" clip-rule="evenodd" fill="#346896" d="M557.455,262.445c0.942,0,1.711-0.769,1.711-1.711
					c0-0.942-0.769-1.712-1.711-1.712c-0.942,0-1.712,0.77-1.712,1.712C555.743,261.677,556.513,262.445,557.455,262.445z"/>
				<path fill-rule="evenodd" clip-rule="evenodd" fill="#346896" d="M562.977,262.445c0.942,0,1.711-0.769,1.711-1.711
					c0-0.942-0.768-1.712-1.711-1.712s-1.711,0.77-1.711,1.712C561.267,261.677,562.035,262.445,562.977,262.445z"/>
				<path fill-rule="evenodd" clip-rule="evenodd" fill="#346896" d="M568.5,262.445c0.942,0,1.712-0.769,1.712-1.711
					c0-0.942-0.77-1.712-1.712-1.712c-0.942,0-1.711,0.77-1.711,1.712C566.789,261.677,567.558,262.445,568.5,262.445z"/>
			</g>
		</g>
	</g>
	<g>
		<g>
			<path fill-rule="evenodd" clip-rule="evenodd" fill="#FFFFFF" d="M199.589,179.942v83.019c0,16.078,13.155,29.233,29.232,29.233
				h143.322c16.078,0,29.233-13.155,29.233-29.233v-83.019c0-16.078-13.155-29.232-29.233-29.232H228.822
				C212.744,150.71,199.589,163.864,199.589,179.942z"/>
			<path fill-rule="evenodd" clip-rule="evenodd" fill="#346896" d="M216.51,161.183v120.54c0,0.234,0.192,0.426,0.426,0.426h165.4
				c0.234,0,0.426-0.191,0.426-0.426v-120.54c0-0.234-0.191-0.426-0.426-0.426h-165.4
				C216.702,160.757,216.51,160.948,216.51,161.183z"/>
			<path fill-rule="evenodd" clip-rule="evenodd" fill="#CCCCCC" d="M204.58,205.933v31.039c0,0.842,0.688,1.53,1.53,1.53h0.001
				c0.841,0,1.53-0.688,1.53-1.53v-31.039c0-0.842-0.689-1.529-1.53-1.529h-0.001C205.268,204.403,204.58,205.091,204.58,205.933z"
				/>
			<circle fill-rule="evenodd" clip-rule="evenodd" fill="#CCCCCC" cx="391.781" cy="221.452" r="5.172"/>
		</g>
		<rect x="237.891" y="253.734" fill-rule="evenodd" clip-rule="evenodd" fill="#5896CC" width="125.184" height="4.068"/>
		<rect x="251.049" y="250.343" fill-rule="evenodd" clip-rule="evenodd" fill="#FF8800" width="2.602" height="10.852"/>
		<path fill-rule="evenodd" clip-rule="evenodd" fill="#D4453B" d="M278.002,196.489h38.164c5.409,0,9.835,4.426,9.835,9.835v16.392
			c0,5.408-4.426,9.834-9.835,9.834h-38.164c-5.409,0-9.835-4.426-9.835-9.834v-16.392
			C268.167,200.915,272.593,196.489,278.002,196.489z"/>
		<polygon fill-rule="evenodd" clip-rule="evenodd" fill="#FFFFFF" points="288.318,203.974 305.85,214.519 288.318,225.065 		"/>
		<path fill-rule="evenodd" clip-rule="evenodd" fill="#5896CC" d="M345.734,264.455h4.138v1.648h-2.313v2.403h-1.824V264.455
			L345.734,264.455z M347.559,270.402v2.403h2.313v1.648h-4.138v-4.052H347.559L347.559,270.402z M356.495,264.455h4.137v4.052
			h-1.825v-2.403h-2.311V264.455L356.495,264.455z M360.632,270.402v4.052h-4.137v-1.648h2.311v-2.403H360.632z"/>
		<g>
			<polygon fill-rule="evenodd" clip-rule="evenodd" fill="#5896CC" points="305.964,264.843 301.111,267.108 298.348,267.108 
				298.348,271.795 301.111,271.795 305.964,274.059 			"/>
			<path fill="#5896CC" d="M307.983,264.533c1.415,0.567,2.344,1.693,2.802,2.994c0.233,0.667,0.343,1.382,0.329,2.092
				c-0.015,0.711-0.152,1.416-0.412,2.062c-0.487,1.215-1.403,2.227-2.734,2.694l-0.241-0.692c1.112-0.392,1.882-1.246,2.295-2.275
				c0.226-0.565,0.348-1.182,0.359-1.803c0.013-0.621-0.084-1.25-0.289-1.836c-0.392-1.111-1.182-2.072-2.382-2.554L307.983,264.533
				z"/>
			<path fill="#5896CC" d="M308.038,266.15c0.44,0.271,0.803,0.648,1.078,1.092l0,0c0.39,0.626,0.605,1.39,0.623,2.158
				c0.018,0.768-0.164,1.55-0.568,2.212c-0.273,0.445-0.648,0.839-1.132,1.139l-0.385-0.624c0.379-0.235,0.674-0.546,0.891-0.897
				c0.329-0.538,0.476-1.179,0.462-1.815c-0.015-0.637-0.193-1.268-0.515-1.785v-0.001c-0.216-0.349-0.498-0.644-0.836-0.852
				L308.038,266.15z"/>
		</g>
		<text transform="matrix(1 0 0 1 251.9912 273.7587)" fill="#5896CC" font-family="'Arial-BoldMT'" font-size="9.3427">0:00/2:56</text>
		<polygon fill-rule="evenodd" clip-rule="evenodd" fill="#5896CC" points="237.892,264.822 245.591,269.454 237.892,274.087 		"/>
	</g>
</g>
</svg>
