<?xml version="1.0" encoding="utf-8"?>
<!-- Generator: Adobe Illustrator 17.0.1, SVG Export Plug-In . SVG Version: 6.00 Build 0)  -->
<!DOCTYPE svg PUBLIC "-//W3C//DTD SVG 1.1//EN" "http://www.w3.org/Graphics/SVG/1.1/DTD/svg11.dtd">
<svg version="1.1" id="Слой_1" xmlns="http://www.w3.org/2000/svg" xmlns:xlink="http://www.w3.org/1999/xlink" x="0px" y="0px"
	 width="60px" height="60px" viewBox="0 0 60 60" enable-background="new 0 0 60 60" xml:space="preserve">
<g opacity="0.2">
	<path fill="#FF6E58" d="M20,48c-9.925,0-18-8.075-18-18c0-9.925,8.075-18,18-18s18,8.075,18,18C38,39.925,29.925,48,20,48z"/>
	<path fill="#FFFFFF" d="M20,14c8.822,0,16,7.178,16,16s-7.178,16-16,16S4,38.822,4,30S11.178,14,20,14 M20,10
		C8.954,10,0,18.954,0,30s8.954,20,20,20s20-8.954,20-20S31.046,10,20,10L20,10z"/>
</g>
<g opacity="0.6">
	<path fill="#FF6E58" d="M30,48c-9.925,0-18-8.075-18-18c0-9.925,8.075-18,18-18c9.925,0,18,8.075,18,18C48,39.925,39.925,48,30,48z
		"/>
	<path fill="#FFFFFF" d="M30,14c8.822,0,16,7.178,16,16s-7.178,16-16,16s-16-7.178-16-16S21.178,14,30,14 M30,10
		c-11.046,0-20,8.954-20,20s8.954,20,20,20s20-8.954,20-20S41.046,10,30,10L30,10z"/>
</g>
<g>
	<path fill="#FF6E58" d="M40,48c-9.925,0-18-8.075-18-18c0-9.925,8.075-18,18-18c9.925,0,18,8.075,18,18C58,39.925,49.925,48,40,48z
		"/>
	<path fill="#FFFFFF" d="M40,14c8.822,0,16,7.178,16,16s-7.178,16-16,16s-16-7.178-16-16S31.178,14,40,14 M40,10
		c-11.046,0-20,8.954-20,20s8.954,20,20,20s20-8.954,20-20S51.046,10,40,10L40,10z"/>
</g>
</svg>
